G75*
G70*
%OFA0B0*%
%FSLAX24Y24*%
%IPPOS*%
%LPD*%
%AMOC8*
5,1,8,0,0,1.08239X$1,22.5*
%
%ADD10C,0.1340*%
%ADD11C,0.0820*%
%ADD12R,0.0820X0.0820*%
%ADD13OC8,0.0820*%
%ADD14C,0.0840*%
%ADD15C,0.0789*%
%ADD16C,0.1025*%
%ADD17C,0.0710*%
%ADD18C,0.0785*%
%ADD19C,0.0680*%
%ADD20C,0.1380*%
%ADD21OC8,0.0780*%
%ADD22C,0.0780*%
%ADD23C,0.0710*%
%ADD24OC8,0.0710*%
%ADD25OC8,0.0640*%
%ADD26C,0.0740*%
%ADD27C,0.0980*%
%ADD28OC8,0.0600*%
%ADD29OC8,0.0740*%
%ADD30C,0.0600*%
%ADD31C,0.0789*%
%ADD32C,0.0965*%
%ADD33C,0.0820*%
%ADD34R,0.0946X0.0316*%
%ADD35C,0.2000*%
%ADD36C,0.0500*%
%ADD37C,0.0671*%
%ADD38C,0.0480*%
%ADD39C,0.0476*%
%ADD40C,0.0437*%
D10*
X025250Y004652D03*
X029750Y004652D03*
X032750Y004652D03*
X037250Y004652D03*
X006375Y008652D03*
X006500Y014652D03*
X036000Y014652D03*
X053250Y017902D03*
X074000Y014152D03*
X079500Y024402D03*
X114000Y027402D03*
X142500Y040652D03*
X077000Y040652D03*
X038500Y033652D03*
X026500Y031652D03*
X006000Y033652D03*
X007000Y040652D03*
X133500Y002152D03*
D11*
X132500Y020152D03*
X129500Y020152D03*
X131500Y023652D03*
X134500Y023652D03*
X132500Y025152D03*
X129500Y025152D03*
X131500Y028652D03*
X132500Y029652D03*
X134500Y028652D03*
X129500Y029652D03*
X131500Y033152D03*
X134500Y033152D03*
X038500Y031652D03*
X037500Y031652D03*
X018500Y033652D03*
X017500Y033652D03*
X016500Y033652D03*
X015500Y033652D03*
X014500Y033652D03*
X013500Y033652D03*
X014000Y019152D03*
X015000Y019152D03*
X016000Y019152D03*
X019500Y019152D03*
X020500Y019152D03*
X021500Y019152D03*
X021500Y016152D03*
X020500Y016152D03*
X019500Y016152D03*
X016000Y016152D03*
X015000Y016152D03*
X014000Y016152D03*
X013900Y014652D03*
X012900Y014652D03*
X011900Y014652D03*
X010900Y014652D03*
X009900Y014652D03*
X014900Y014652D03*
X015900Y014652D03*
X016900Y014652D03*
X018500Y014652D03*
X019500Y014652D03*
X020500Y014652D03*
X021500Y014652D03*
X022500Y014652D03*
X023500Y014652D03*
X024500Y014652D03*
X025500Y014652D03*
X027500Y014652D03*
X028500Y014652D03*
X029500Y014652D03*
X030500Y014652D03*
X031500Y014652D03*
X032500Y014652D03*
X033500Y014652D03*
X034500Y014652D03*
X037500Y014652D03*
X038500Y014652D03*
X028000Y010652D03*
X025000Y010652D03*
X026250Y008152D03*
X027250Y008152D03*
X028250Y008152D03*
X029250Y008152D03*
X028750Y007152D03*
X027750Y007152D03*
X026750Y007152D03*
X033750Y008152D03*
X034750Y008152D03*
X035750Y008152D03*
X036750Y008152D03*
X036250Y007152D03*
X035250Y007152D03*
X034250Y007152D03*
D12*
X033250Y007152D03*
X025750Y007152D03*
D13*
X037500Y015652D03*
X038500Y015652D03*
X038500Y016652D03*
X037500Y016652D03*
X037500Y017652D03*
X038500Y017652D03*
X038500Y018652D03*
X037500Y018652D03*
X037500Y019652D03*
X038500Y019652D03*
X038500Y027652D03*
X037500Y027652D03*
X037500Y028652D03*
X038500Y028652D03*
X038500Y029652D03*
X037500Y029652D03*
X037500Y030652D03*
X038500Y030652D03*
D14*
X012500Y033652D03*
X011500Y033652D03*
X009000Y014652D03*
X008000Y014652D03*
D15*
X043000Y007935D03*
X046000Y007935D03*
X053000Y007935D03*
X056000Y007935D03*
X063000Y007935D03*
X066000Y007935D03*
X073000Y007935D03*
X076000Y007935D03*
X083000Y007935D03*
X086000Y007935D03*
X093000Y007935D03*
X096000Y007935D03*
X103000Y007935D03*
X106000Y007935D03*
X113000Y007935D03*
X116000Y007935D03*
X125500Y007935D03*
X128500Y007935D03*
X138500Y007935D03*
X141500Y007935D03*
X143248Y003931D03*
X130248Y003931D03*
X117748Y003931D03*
X107748Y003931D03*
X097748Y003931D03*
X087748Y003931D03*
X077748Y003931D03*
X067748Y003931D03*
X057748Y003931D03*
X047748Y003931D03*
D16*
X046000Y006433D03*
X043000Y006433D03*
X053000Y006433D03*
X056000Y006433D03*
X063000Y006433D03*
X066000Y006433D03*
X073000Y006433D03*
X076000Y006433D03*
X083000Y006433D03*
X086000Y006433D03*
X093000Y006433D03*
X096000Y006433D03*
X103000Y006433D03*
X106000Y006433D03*
X113000Y006433D03*
X116000Y006433D03*
X125500Y006433D03*
X128500Y006433D03*
X138500Y006433D03*
X141500Y006433D03*
D17*
X138500Y004683D03*
X141500Y002683D03*
X128500Y002683D03*
X125500Y004683D03*
X116000Y002683D03*
X113000Y004683D03*
X106000Y002683D03*
X103000Y004683D03*
X096000Y002683D03*
X093000Y004683D03*
X086000Y002683D03*
X083000Y004683D03*
X076000Y002683D03*
X073000Y004683D03*
X066000Y002683D03*
X063000Y004683D03*
X056000Y002683D03*
X053000Y004683D03*
X046000Y002683D03*
X043000Y004683D03*
D18*
X022484Y039299D02*
X022484Y040004D01*
X020516Y040004D02*
X020516Y039299D01*
X017984Y039299D02*
X017984Y040004D01*
X016016Y040004D02*
X016016Y039299D01*
X013484Y039299D02*
X013484Y040004D01*
X011516Y040004D02*
X011516Y039299D01*
X048516Y039799D02*
X048516Y040504D01*
X050484Y040504D02*
X050484Y039799D01*
X052516Y039799D02*
X052516Y040504D01*
X054484Y040504D02*
X054484Y039799D01*
X058016Y039799D02*
X058016Y040504D01*
X059984Y040504D02*
X059984Y039799D01*
X062516Y039799D02*
X062516Y040504D01*
X064484Y040504D02*
X064484Y039799D01*
D19*
X073700Y037652D02*
X074300Y037652D01*
X074300Y036652D02*
X073700Y036652D01*
X073700Y035652D02*
X074300Y035652D01*
X062500Y034452D02*
X062500Y033852D01*
X061500Y033852D02*
X061500Y034452D01*
X060500Y034452D02*
X060500Y033852D01*
X052000Y033452D02*
X052000Y032852D01*
X051000Y032852D02*
X051000Y033452D01*
X050000Y033452D02*
X050000Y032852D01*
X090500Y039352D02*
X090500Y039952D01*
X091500Y039952D02*
X091500Y039352D01*
X092500Y039352D02*
X092500Y039952D01*
X093500Y039952D02*
X093500Y039352D01*
X094500Y039352D02*
X094500Y039952D01*
X095500Y039952D02*
X095500Y039352D01*
X096500Y039352D02*
X096500Y039952D01*
X097500Y039952D02*
X097500Y039352D01*
X100500Y039352D02*
X100500Y039952D01*
X101500Y039952D02*
X101500Y039352D01*
X102500Y039352D02*
X102500Y039952D01*
X103500Y039952D02*
X103500Y039352D01*
X104500Y039352D02*
X104500Y039952D01*
X105500Y039952D02*
X105500Y039352D01*
X106500Y039352D02*
X106500Y039952D01*
X107500Y039952D02*
X107500Y039352D01*
X131500Y031452D02*
X131500Y030852D01*
X132500Y030852D02*
X132500Y031452D01*
X133500Y031452D02*
X133500Y030852D01*
X133500Y026952D02*
X133500Y026352D01*
X132500Y026352D02*
X132500Y026952D01*
X131500Y026952D02*
X131500Y026352D01*
X131500Y021952D02*
X131500Y021352D01*
X132500Y021352D02*
X132500Y021952D01*
X133500Y021952D02*
X133500Y021352D01*
X129800Y018152D02*
X129200Y018152D01*
X129200Y017152D02*
X129800Y017152D01*
X129800Y016152D02*
X129200Y016152D01*
X129200Y015152D02*
X129800Y015152D01*
X129800Y014152D02*
X129200Y014152D01*
X129200Y013152D02*
X129800Y013152D01*
X129800Y012152D02*
X129200Y012152D01*
X129200Y011152D02*
X129800Y011152D01*
X124800Y011152D02*
X124200Y011152D01*
X124200Y012152D02*
X124800Y012152D01*
X124800Y013152D02*
X124200Y013152D01*
X124200Y014152D02*
X124800Y014152D01*
X124800Y015152D02*
X124200Y015152D01*
X124200Y016152D02*
X124800Y016152D01*
X124800Y017152D02*
X124200Y017152D01*
X124200Y018152D02*
X124800Y018152D01*
D20*
X117000Y017552D03*
X107000Y017552D03*
X097000Y017552D03*
X087500Y017552D03*
X077500Y017552D03*
X067500Y017552D03*
X057500Y017552D03*
X047500Y017552D03*
X068100Y036652D03*
D21*
X062500Y036652D03*
X057000Y035652D03*
X076000Y035652D03*
X073000Y011652D03*
X063000Y011652D03*
X053000Y011652D03*
X043000Y011652D03*
X083000Y011652D03*
X093000Y011652D03*
X103000Y011652D03*
X113000Y011652D03*
X137000Y010652D03*
D22*
X138000Y010652D03*
X114000Y011652D03*
X104000Y011652D03*
X094000Y011652D03*
X084000Y011652D03*
X074000Y011652D03*
X064000Y011652D03*
X054000Y011652D03*
X044000Y011652D03*
X056000Y035652D03*
X061500Y036652D03*
X076000Y036652D03*
D23*
X080000Y036652D03*
X061500Y031652D03*
X051000Y035652D03*
D24*
X050000Y035652D03*
X062500Y031652D03*
X080000Y035652D03*
D25*
X078000Y035652D03*
X078000Y036652D03*
X058500Y036652D03*
X058500Y035652D03*
X051000Y031277D03*
X050000Y031277D03*
D26*
X049830Y037652D02*
X049170Y037652D01*
X054170Y037652D02*
X054830Y037652D01*
X136670Y025152D02*
X137330Y025152D01*
X141670Y025152D02*
X142330Y025152D01*
X142330Y023152D02*
X141670Y023152D01*
X137330Y023152D02*
X136670Y023152D01*
X137670Y020652D02*
X138330Y020652D01*
X142670Y020652D02*
X143330Y020652D01*
X143330Y018652D02*
X142670Y018652D01*
X138330Y018652D02*
X137670Y018652D01*
X118000Y010982D02*
X118000Y010322D01*
X117000Y010322D02*
X117000Y010982D01*
X116000Y010982D02*
X116000Y010322D01*
X108000Y010322D02*
X108000Y010982D01*
X107000Y010982D02*
X107000Y010322D01*
X106000Y010322D02*
X106000Y010982D01*
X098000Y010982D02*
X098000Y010322D01*
X097000Y010322D02*
X097000Y010982D01*
X096000Y010982D02*
X096000Y010322D01*
X088500Y010322D02*
X088500Y010982D01*
X087500Y010982D02*
X087500Y010322D01*
X086500Y010322D02*
X086500Y010982D01*
X078500Y010982D02*
X078500Y010322D01*
X077500Y010322D02*
X077500Y010982D01*
X076500Y010982D02*
X076500Y010322D01*
X068500Y010322D02*
X068500Y010982D01*
X067500Y010982D02*
X067500Y010322D01*
X066500Y010322D02*
X066500Y010982D01*
X058500Y010982D02*
X058500Y010322D01*
X057500Y010322D02*
X057500Y010982D01*
X056500Y010982D02*
X056500Y010322D01*
X048500Y010322D02*
X048500Y010982D01*
X047500Y010982D02*
X047500Y010322D01*
X046500Y010322D02*
X046500Y010982D01*
D27*
X007217Y002139D03*
X011157Y002139D03*
X016717Y002139D03*
X020657Y002139D03*
X021626Y006069D03*
X020654Y007065D03*
X018681Y006073D03*
X016717Y007061D03*
X015717Y006069D03*
X012126Y006069D03*
X011154Y007065D03*
X009181Y006073D03*
X007217Y007061D03*
X006217Y006069D03*
D28*
X007000Y010152D03*
X007000Y012152D03*
X132000Y013652D03*
X133000Y013652D03*
X133000Y010652D03*
X132000Y010652D03*
X139500Y009652D03*
X140500Y009652D03*
X134000Y017152D03*
X132000Y017152D03*
D29*
X044500Y038152D03*
X043500Y038152D03*
X015000Y012152D03*
X018000Y011652D03*
X020500Y011652D03*
X015000Y011152D03*
X018000Y008652D03*
X020500Y008652D03*
X014500Y008152D03*
X011500Y008152D03*
X008000Y009152D03*
X008000Y012152D03*
D30*
X008980Y012652D02*
X009500Y012652D01*
X009500Y011652D02*
X008980Y011652D01*
X012500Y011652D02*
X013020Y011652D01*
X013020Y012652D02*
X012500Y012652D01*
X012500Y010652D02*
X013020Y010652D01*
X013020Y009652D02*
X012500Y009652D01*
X009500Y009652D02*
X008980Y009652D01*
X008980Y010652D02*
X009500Y010652D01*
D31*
X136500Y012797D02*
X136500Y013506D01*
X137500Y013506D02*
X137500Y012797D01*
X138500Y012797D02*
X138500Y013506D01*
X139500Y013506D02*
X139500Y012797D01*
X140500Y012797D02*
X140500Y013506D01*
X141500Y013506D02*
X141500Y012797D01*
X142500Y012797D02*
X142500Y013506D01*
X143500Y013506D02*
X143500Y012797D01*
X143000Y014797D02*
X143000Y015506D01*
X142000Y015506D02*
X142000Y014797D01*
X141000Y014797D02*
X141000Y015506D01*
X140000Y015506D02*
X140000Y014797D01*
X139000Y014797D02*
X139000Y015506D01*
X138000Y015506D02*
X138000Y014797D01*
X137000Y014797D02*
X137000Y015506D01*
D32*
X110500Y015709D02*
X110500Y016594D01*
X100500Y016594D02*
X100500Y015709D01*
X091000Y015709D02*
X091000Y016594D01*
X081000Y016594D02*
X081000Y015709D01*
X071000Y015709D02*
X071000Y016594D01*
X061000Y016594D02*
X061000Y015709D01*
X051000Y015709D02*
X051000Y016594D01*
X041000Y016594D02*
X041000Y015709D01*
X041000Y010594D02*
X041000Y009709D01*
X051000Y009709D02*
X051000Y010594D01*
X061000Y010594D02*
X061000Y009709D01*
X071000Y009709D02*
X071000Y010594D01*
X081000Y010594D02*
X081000Y009709D01*
X091000Y009709D02*
X091000Y010594D01*
X100500Y010594D02*
X100500Y009709D01*
X110500Y009709D02*
X110500Y010594D01*
D33*
X044500Y040782D02*
X044500Y041522D01*
X043500Y041522D02*
X043500Y040782D01*
X042500Y040782D02*
X042500Y041522D01*
D34*
X071476Y021402D03*
X071476Y020902D03*
X071476Y020402D03*
X071476Y019902D03*
X073524Y019902D03*
X073524Y020402D03*
X073524Y020902D03*
X073524Y021402D03*
X081476Y021402D03*
X081476Y020902D03*
X081476Y020402D03*
X081476Y019902D03*
X083524Y019902D03*
X083524Y020402D03*
X083524Y020902D03*
X083524Y021402D03*
X090976Y021402D03*
X090976Y020902D03*
X090976Y020402D03*
X090976Y019902D03*
X093024Y019902D03*
X093024Y020402D03*
X093024Y020902D03*
X093024Y021402D03*
X100476Y021402D03*
X100476Y020902D03*
X100476Y020402D03*
X100476Y019902D03*
X102524Y019902D03*
X102524Y020402D03*
X102524Y020902D03*
X102524Y021402D03*
D35*
X129625Y037027D03*
D36*
X140644Y039402D02*
X140646Y039439D01*
X140652Y039476D01*
X140661Y039512D01*
X140675Y039547D01*
X140692Y039580D01*
X140712Y039611D01*
X140735Y039640D01*
X140762Y039667D01*
X140791Y039690D01*
X140822Y039710D01*
X140855Y039727D01*
X140890Y039741D01*
X140926Y039750D01*
X140963Y039756D01*
X141000Y039758D01*
X141037Y039756D01*
X141074Y039750D01*
X141110Y039741D01*
X141145Y039727D01*
X141178Y039710D01*
X141209Y039690D01*
X141238Y039667D01*
X141265Y039640D01*
X141288Y039611D01*
X141308Y039580D01*
X141325Y039547D01*
X141339Y039512D01*
X141348Y039476D01*
X141354Y039439D01*
X141356Y039402D01*
X141354Y039365D01*
X141348Y039328D01*
X141339Y039292D01*
X141325Y039257D01*
X141308Y039224D01*
X141288Y039193D01*
X141265Y039164D01*
X141238Y039137D01*
X141209Y039114D01*
X141178Y039094D01*
X141145Y039077D01*
X141110Y039063D01*
X141074Y039054D01*
X141037Y039048D01*
X141000Y039046D01*
X140963Y039048D01*
X140926Y039054D01*
X140890Y039063D01*
X140855Y039077D01*
X140822Y039094D01*
X140791Y039114D01*
X140762Y039137D01*
X140735Y039164D01*
X140712Y039193D01*
X140692Y039224D01*
X140675Y039257D01*
X140661Y039292D01*
X140652Y039328D01*
X140646Y039365D01*
X140644Y039402D01*
X088519Y024277D02*
X088521Y024314D01*
X088527Y024351D01*
X088536Y024387D01*
X088550Y024422D01*
X088567Y024455D01*
X088587Y024486D01*
X088610Y024515D01*
X088637Y024542D01*
X088666Y024565D01*
X088697Y024585D01*
X088730Y024602D01*
X088765Y024616D01*
X088801Y024625D01*
X088838Y024631D01*
X088875Y024633D01*
X088912Y024631D01*
X088949Y024625D01*
X088985Y024616D01*
X089020Y024602D01*
X089053Y024585D01*
X089084Y024565D01*
X089113Y024542D01*
X089140Y024515D01*
X089163Y024486D01*
X089183Y024455D01*
X089200Y024422D01*
X089214Y024387D01*
X089223Y024351D01*
X089229Y024314D01*
X089231Y024277D01*
X089229Y024240D01*
X089223Y024203D01*
X089214Y024167D01*
X089200Y024132D01*
X089183Y024099D01*
X089163Y024068D01*
X089140Y024039D01*
X089113Y024012D01*
X089084Y023989D01*
X089053Y023969D01*
X089020Y023952D01*
X088985Y023938D01*
X088949Y023929D01*
X088912Y023923D01*
X088875Y023921D01*
X088838Y023923D01*
X088801Y023929D01*
X088765Y023938D01*
X088730Y023952D01*
X088697Y023969D01*
X088666Y023989D01*
X088637Y024012D01*
X088610Y024039D01*
X088587Y024068D01*
X088567Y024099D01*
X088550Y024132D01*
X088536Y024167D01*
X088527Y024203D01*
X088521Y024240D01*
X088519Y024277D01*
X071394Y024027D02*
X071396Y024064D01*
X071402Y024101D01*
X071411Y024137D01*
X071425Y024172D01*
X071442Y024205D01*
X071462Y024236D01*
X071485Y024265D01*
X071512Y024292D01*
X071541Y024315D01*
X071572Y024335D01*
X071605Y024352D01*
X071640Y024366D01*
X071676Y024375D01*
X071713Y024381D01*
X071750Y024383D01*
X071787Y024381D01*
X071824Y024375D01*
X071860Y024366D01*
X071895Y024352D01*
X071928Y024335D01*
X071959Y024315D01*
X071988Y024292D01*
X072015Y024265D01*
X072038Y024236D01*
X072058Y024205D01*
X072075Y024172D01*
X072089Y024137D01*
X072098Y024101D01*
X072104Y024064D01*
X072106Y024027D01*
X072104Y023990D01*
X072098Y023953D01*
X072089Y023917D01*
X072075Y023882D01*
X072058Y023849D01*
X072038Y023818D01*
X072015Y023789D01*
X071988Y023762D01*
X071959Y023739D01*
X071928Y023719D01*
X071895Y023702D01*
X071860Y023688D01*
X071824Y023679D01*
X071787Y023673D01*
X071750Y023671D01*
X071713Y023673D01*
X071676Y023679D01*
X071640Y023688D01*
X071605Y023702D01*
X071572Y023719D01*
X071541Y023739D01*
X071512Y023762D01*
X071485Y023789D01*
X071462Y023818D01*
X071442Y023849D01*
X071425Y023882D01*
X071411Y023917D01*
X071402Y023953D01*
X071396Y023990D01*
X071394Y024027D01*
X081769Y017527D02*
X081771Y017564D01*
X081777Y017601D01*
X081786Y017637D01*
X081800Y017672D01*
X081817Y017705D01*
X081837Y017736D01*
X081860Y017765D01*
X081887Y017792D01*
X081916Y017815D01*
X081947Y017835D01*
X081980Y017852D01*
X082015Y017866D01*
X082051Y017875D01*
X082088Y017881D01*
X082125Y017883D01*
X082162Y017881D01*
X082199Y017875D01*
X082235Y017866D01*
X082270Y017852D01*
X082303Y017835D01*
X082334Y017815D01*
X082363Y017792D01*
X082390Y017765D01*
X082413Y017736D01*
X082433Y017705D01*
X082450Y017672D01*
X082464Y017637D01*
X082473Y017601D01*
X082479Y017564D01*
X082481Y017527D01*
X082479Y017490D01*
X082473Y017453D01*
X082464Y017417D01*
X082450Y017382D01*
X082433Y017349D01*
X082413Y017318D01*
X082390Y017289D01*
X082363Y017262D01*
X082334Y017239D01*
X082303Y017219D01*
X082270Y017202D01*
X082235Y017188D01*
X082199Y017179D01*
X082162Y017173D01*
X082125Y017171D01*
X082088Y017173D01*
X082051Y017179D01*
X082015Y017188D01*
X081980Y017202D01*
X081947Y017219D01*
X081916Y017239D01*
X081887Y017262D01*
X081860Y017289D01*
X081837Y017318D01*
X081817Y017349D01*
X081800Y017382D01*
X081786Y017417D01*
X081777Y017453D01*
X081771Y017490D01*
X081769Y017527D01*
X103769Y017902D02*
X103771Y017939D01*
X103777Y017976D01*
X103786Y018012D01*
X103800Y018047D01*
X103817Y018080D01*
X103837Y018111D01*
X103860Y018140D01*
X103887Y018167D01*
X103916Y018190D01*
X103947Y018210D01*
X103980Y018227D01*
X104015Y018241D01*
X104051Y018250D01*
X104088Y018256D01*
X104125Y018258D01*
X104162Y018256D01*
X104199Y018250D01*
X104235Y018241D01*
X104270Y018227D01*
X104303Y018210D01*
X104334Y018190D01*
X104363Y018167D01*
X104390Y018140D01*
X104413Y018111D01*
X104433Y018080D01*
X104450Y018047D01*
X104464Y018012D01*
X104473Y017976D01*
X104479Y017939D01*
X104481Y017902D01*
X104479Y017865D01*
X104473Y017828D01*
X104464Y017792D01*
X104450Y017757D01*
X104433Y017724D01*
X104413Y017693D01*
X104390Y017664D01*
X104363Y017637D01*
X104334Y017614D01*
X104303Y017594D01*
X104270Y017577D01*
X104235Y017563D01*
X104199Y017554D01*
X104162Y017548D01*
X104125Y017546D01*
X104088Y017548D01*
X104051Y017554D01*
X104015Y017563D01*
X103980Y017577D01*
X103947Y017594D01*
X103916Y017614D01*
X103887Y017637D01*
X103860Y017664D01*
X103837Y017693D01*
X103817Y017724D01*
X103800Y017757D01*
X103786Y017792D01*
X103777Y017828D01*
X103771Y017865D01*
X103769Y017902D01*
X133269Y005402D02*
X133271Y005439D01*
X133277Y005476D01*
X133286Y005512D01*
X133300Y005547D01*
X133317Y005580D01*
X133337Y005611D01*
X133360Y005640D01*
X133387Y005667D01*
X133416Y005690D01*
X133447Y005710D01*
X133480Y005727D01*
X133515Y005741D01*
X133551Y005750D01*
X133588Y005756D01*
X133625Y005758D01*
X133662Y005756D01*
X133699Y005750D01*
X133735Y005741D01*
X133770Y005727D01*
X133803Y005710D01*
X133834Y005690D01*
X133863Y005667D01*
X133890Y005640D01*
X133913Y005611D01*
X133933Y005580D01*
X133950Y005547D01*
X133964Y005512D01*
X133973Y005476D01*
X133979Y005439D01*
X133981Y005402D01*
X133979Y005365D01*
X133973Y005328D01*
X133964Y005292D01*
X133950Y005257D01*
X133933Y005224D01*
X133913Y005193D01*
X133890Y005164D01*
X133863Y005137D01*
X133834Y005114D01*
X133803Y005094D01*
X133770Y005077D01*
X133735Y005063D01*
X133699Y005054D01*
X133662Y005048D01*
X133625Y005046D01*
X133588Y005048D01*
X133551Y005054D01*
X133515Y005063D01*
X133480Y005077D01*
X133447Y005094D01*
X133416Y005114D01*
X133387Y005137D01*
X133360Y005164D01*
X133337Y005193D01*
X133317Y005224D01*
X133300Y005257D01*
X133286Y005292D01*
X133277Y005328D01*
X133271Y005365D01*
X133269Y005402D01*
X046019Y033277D02*
X046021Y033314D01*
X046027Y033351D01*
X046036Y033387D01*
X046050Y033422D01*
X046067Y033455D01*
X046087Y033486D01*
X046110Y033515D01*
X046137Y033542D01*
X046166Y033565D01*
X046197Y033585D01*
X046230Y033602D01*
X046265Y033616D01*
X046301Y033625D01*
X046338Y033631D01*
X046375Y033633D01*
X046412Y033631D01*
X046449Y033625D01*
X046485Y033616D01*
X046520Y033602D01*
X046553Y033585D01*
X046584Y033565D01*
X046613Y033542D01*
X046640Y033515D01*
X046663Y033486D01*
X046683Y033455D01*
X046700Y033422D01*
X046714Y033387D01*
X046723Y033351D01*
X046729Y033314D01*
X046731Y033277D01*
X046729Y033240D01*
X046723Y033203D01*
X046714Y033167D01*
X046700Y033132D01*
X046683Y033099D01*
X046663Y033068D01*
X046640Y033039D01*
X046613Y033012D01*
X046584Y032989D01*
X046553Y032969D01*
X046520Y032952D01*
X046485Y032938D01*
X046449Y032929D01*
X046412Y032923D01*
X046375Y032921D01*
X046338Y032923D01*
X046301Y032929D01*
X046265Y032938D01*
X046230Y032952D01*
X046197Y032969D01*
X046166Y032989D01*
X046137Y033012D01*
X046110Y033039D01*
X046087Y033068D01*
X046067Y033099D01*
X046050Y033132D01*
X046036Y033167D01*
X046027Y033203D01*
X046021Y033240D01*
X046019Y033277D01*
X073894Y041277D02*
X073896Y041314D01*
X073902Y041351D01*
X073911Y041387D01*
X073925Y041422D01*
X073942Y041455D01*
X073962Y041486D01*
X073985Y041515D01*
X074012Y041542D01*
X074041Y041565D01*
X074072Y041585D01*
X074105Y041602D01*
X074140Y041616D01*
X074176Y041625D01*
X074213Y041631D01*
X074250Y041633D01*
X074287Y041631D01*
X074324Y041625D01*
X074360Y041616D01*
X074395Y041602D01*
X074428Y041585D01*
X074459Y041565D01*
X074488Y041542D01*
X074515Y041515D01*
X074538Y041486D01*
X074558Y041455D01*
X074575Y041422D01*
X074589Y041387D01*
X074598Y041351D01*
X074604Y041314D01*
X074606Y041277D01*
X074604Y041240D01*
X074598Y041203D01*
X074589Y041167D01*
X074575Y041132D01*
X074558Y041099D01*
X074538Y041068D01*
X074515Y041039D01*
X074488Y041012D01*
X074459Y040989D01*
X074428Y040969D01*
X074395Y040952D01*
X074360Y040938D01*
X074324Y040929D01*
X074287Y040923D01*
X074250Y040921D01*
X074213Y040923D01*
X074176Y040929D01*
X074140Y040938D01*
X074105Y040952D01*
X074072Y040969D01*
X074041Y040989D01*
X074012Y041012D01*
X073985Y041039D01*
X073962Y041068D01*
X073942Y041099D01*
X073925Y041132D01*
X073911Y041167D01*
X073902Y041203D01*
X073896Y041240D01*
X073894Y041277D01*
X007769Y039402D02*
X007771Y039439D01*
X007777Y039476D01*
X007786Y039512D01*
X007800Y039547D01*
X007817Y039580D01*
X007837Y039611D01*
X007860Y039640D01*
X007887Y039667D01*
X007916Y039690D01*
X007947Y039710D01*
X007980Y039727D01*
X008015Y039741D01*
X008051Y039750D01*
X008088Y039756D01*
X008125Y039758D01*
X008162Y039756D01*
X008199Y039750D01*
X008235Y039741D01*
X008270Y039727D01*
X008303Y039710D01*
X008334Y039690D01*
X008363Y039667D01*
X008390Y039640D01*
X008413Y039611D01*
X008433Y039580D01*
X008450Y039547D01*
X008464Y039512D01*
X008473Y039476D01*
X008479Y039439D01*
X008481Y039402D01*
X008479Y039365D01*
X008473Y039328D01*
X008464Y039292D01*
X008450Y039257D01*
X008433Y039224D01*
X008413Y039193D01*
X008390Y039164D01*
X008363Y039137D01*
X008334Y039114D01*
X008303Y039094D01*
X008270Y039077D01*
X008235Y039063D01*
X008199Y039054D01*
X008162Y039048D01*
X008125Y039046D01*
X008088Y039048D01*
X008051Y039054D01*
X008015Y039063D01*
X007980Y039077D01*
X007947Y039094D01*
X007916Y039114D01*
X007887Y039137D01*
X007860Y039164D01*
X007837Y039193D01*
X007817Y039224D01*
X007800Y039257D01*
X007786Y039292D01*
X007777Y039328D01*
X007771Y039365D01*
X007769Y039402D01*
X034144Y011652D02*
X034146Y011689D01*
X034152Y011726D01*
X034161Y011762D01*
X034175Y011797D01*
X034192Y011830D01*
X034212Y011861D01*
X034235Y011890D01*
X034262Y011917D01*
X034291Y011940D01*
X034322Y011960D01*
X034355Y011977D01*
X034390Y011991D01*
X034426Y012000D01*
X034463Y012006D01*
X034500Y012008D01*
X034537Y012006D01*
X034574Y012000D01*
X034610Y011991D01*
X034645Y011977D01*
X034678Y011960D01*
X034709Y011940D01*
X034738Y011917D01*
X034765Y011890D01*
X034788Y011861D01*
X034808Y011830D01*
X034825Y011797D01*
X034839Y011762D01*
X034848Y011726D01*
X034854Y011689D01*
X034856Y011652D01*
X034854Y011615D01*
X034848Y011578D01*
X034839Y011542D01*
X034825Y011507D01*
X034808Y011474D01*
X034788Y011443D01*
X034765Y011414D01*
X034738Y011387D01*
X034709Y011364D01*
X034678Y011344D01*
X034645Y011327D01*
X034610Y011313D01*
X034574Y011304D01*
X034537Y011298D01*
X034500Y011296D01*
X034463Y011298D01*
X034426Y011304D01*
X034390Y011313D01*
X034355Y011327D01*
X034322Y011344D01*
X034291Y011364D01*
X034262Y011387D01*
X034235Y011414D01*
X034212Y011443D01*
X034192Y011474D01*
X034175Y011507D01*
X034161Y011542D01*
X034152Y011578D01*
X034146Y011615D01*
X034144Y011652D01*
D37*
X034500Y011652D03*
X071750Y024027D03*
X088875Y024277D03*
X104125Y017902D03*
X082125Y017527D03*
X046375Y033277D03*
X074250Y041277D03*
X008125Y039402D03*
X133625Y005402D03*
X141000Y039402D03*
D38*
X138500Y022652D03*
X137500Y021652D03*
X140500Y020652D03*
X140000Y020152D03*
X142000Y019152D03*
X140500Y017152D03*
X144000Y016652D03*
X135500Y017152D03*
X135000Y017152D03*
X133500Y018652D03*
X132500Y019152D03*
X133000Y015152D03*
X132500Y012152D03*
X131500Y012152D03*
X128500Y011152D03*
X136000Y011652D03*
X139500Y011652D03*
X061000Y017652D03*
X044000Y017402D03*
X040500Y013652D03*
X062500Y038652D03*
X044000Y039652D03*
D39*
X043500Y036152D03*
X029000Y040652D03*
X059250Y030652D03*
X058250Y030152D03*
X059375Y029652D03*
X057625Y029152D03*
X058500Y028652D03*
X055250Y028652D03*
X050500Y029152D03*
X049875Y029652D03*
X050500Y030152D03*
X042500Y027902D03*
X042000Y027402D03*
X042500Y026902D03*
X043750Y026902D03*
X042000Y026402D03*
X042500Y025902D03*
X042000Y025402D03*
X042500Y024902D03*
X042000Y024402D03*
X042500Y023902D03*
X042000Y023402D03*
X042500Y022902D03*
X042000Y022402D03*
X042500Y021902D03*
X042250Y019902D03*
X042750Y019402D03*
X043250Y018902D03*
X042750Y018402D03*
X043250Y017902D03*
X042250Y017152D03*
X050750Y018902D03*
X050500Y020652D03*
X051000Y021152D03*
X050500Y021652D03*
X051000Y022152D03*
X050500Y022652D03*
X051000Y023152D03*
X044750Y019902D03*
X062250Y020152D03*
X062250Y019652D03*
X070250Y018152D03*
X074000Y017152D03*
X074750Y019902D03*
X074500Y021402D03*
X070500Y020402D03*
X080500Y020402D03*
X080500Y021402D03*
X084500Y021402D03*
X084750Y019902D03*
X090000Y020402D03*
X090000Y021402D03*
X094000Y021402D03*
X094250Y019902D03*
X099500Y020402D03*
X099500Y021402D03*
X103500Y021402D03*
X105500Y020902D03*
X104500Y019902D03*
X103000Y017152D03*
X095750Y017152D03*
X093500Y017152D03*
X090000Y016902D03*
X090000Y015152D03*
X084000Y017152D03*
X062250Y024652D03*
X063250Y025152D03*
X062250Y025652D03*
X071000Y028152D03*
X070000Y028652D03*
X069125Y029652D03*
X068250Y030152D03*
X069250Y030652D03*
X068125Y031152D03*
X069500Y031652D03*
X066875Y032152D03*
X068625Y032652D03*
X068000Y029152D03*
X101500Y034902D03*
X102000Y034402D03*
X102500Y033902D03*
X112000Y034902D03*
X113250Y034402D03*
X114625Y033902D03*
X118000Y020902D03*
X118750Y020152D03*
X122500Y020152D03*
X031500Y008902D03*
X023250Y010652D03*
X023250Y012402D03*
X018750Y013652D03*
X026500Y015902D03*
X025500Y020902D03*
X026375Y021402D03*
X025500Y021902D03*
X026375Y022402D03*
X025500Y022902D03*
X019125Y024902D03*
X018000Y025402D03*
X018000Y024402D03*
X027500Y026152D03*
X027500Y029402D03*
D40*
X058625Y027652D03*
X059375Y028152D03*
X059500Y027152D03*
X059125Y026652D03*
X059500Y026152D03*
M02*
