G75*
G70*
%OFA0B0*%
%FSLAX24Y24*%
%IPPOS*%
%LPD*%
%AMOC8*
5,1,8,0,0,1.08239X$1,22.5*
%
%ADD10C,0.0740*%
%ADD11R,0.0740X0.0740*%
%ADD12OC8,0.0740*%
%ADD13C,0.0760*%
%ADD14C,0.0709*%
%ADD15C,0.0945*%
%ADD16C,0.0705*%
%ADD17C,0.0600*%
%ADD18OC8,0.0700*%
%ADD19C,0.0700*%
%ADD20C,0.0630*%
%ADD21OC8,0.0630*%
%ADD22OC8,0.0560*%
%ADD23C,0.0660*%
%ADD24C,0.0900*%
%ADD25OC8,0.0520*%
%ADD26OC8,0.0660*%
%ADD27C,0.0520*%
%ADD28C,0.0709*%
%ADD29C,0.0885*%
%ADD30C,0.0740*%
%ADD31C,0.0060*%
%ADD32C,0.0040*%
%ADD33C,0.0450*%
%ADD34C,0.0400*%
%ADD35C,0.0240*%
%ADD36C,0.0400*%
%ADD37C,0.0500*%
%ADD38C,0.0396*%
%ADD39C,0.0160*%
%ADD40C,0.0350*%
%ADD41C,0.0357*%
D10*
X026750Y007152D03*
X027750Y007152D03*
X028750Y007152D03*
X028250Y008152D03*
X027250Y008152D03*
X026250Y008152D03*
X029250Y008152D03*
X033750Y008152D03*
X034750Y008152D03*
X035750Y008152D03*
X036750Y008152D03*
X036250Y007152D03*
X035250Y007152D03*
X034250Y007152D03*
X028000Y010652D03*
X025000Y010652D03*
X024500Y014652D03*
X023500Y014652D03*
X022500Y014652D03*
X021500Y014652D03*
X020500Y014652D03*
X019500Y014652D03*
X018500Y014652D03*
X016900Y014652D03*
X015900Y014652D03*
X014900Y014652D03*
X013900Y014652D03*
X012900Y014652D03*
X011900Y014652D03*
X010900Y014652D03*
X009900Y014652D03*
X014000Y016152D03*
X015000Y016152D03*
X016000Y016152D03*
X019500Y016152D03*
X020500Y016152D03*
X021500Y016152D03*
X025500Y014652D03*
X027500Y014652D03*
X028500Y014652D03*
X029500Y014652D03*
X030500Y014652D03*
X031500Y014652D03*
X032500Y014652D03*
X033500Y014652D03*
X034500Y014652D03*
X037500Y014652D03*
X038500Y014652D03*
X021500Y019152D03*
X020500Y019152D03*
X019500Y019152D03*
X016000Y019152D03*
X015000Y019152D03*
X014000Y019152D03*
X037500Y031652D03*
X038500Y031652D03*
X018500Y033652D03*
X017500Y033652D03*
X016500Y033652D03*
X015500Y033652D03*
X014500Y033652D03*
X013500Y033652D03*
X129500Y029652D03*
X131500Y028652D03*
X132500Y029652D03*
X134500Y028652D03*
X132500Y025152D03*
X129500Y025152D03*
X131500Y023652D03*
X134500Y023652D03*
X132500Y020152D03*
X129500Y020152D03*
X131500Y033152D03*
X134500Y033152D03*
D11*
X033250Y007152D03*
X025750Y007152D03*
D12*
X037500Y015652D03*
X038500Y015652D03*
X038500Y016652D03*
X037500Y016652D03*
X037500Y017652D03*
X038500Y017652D03*
X038500Y018652D03*
X037500Y018652D03*
X037500Y019652D03*
X038500Y019652D03*
X038500Y027652D03*
X037500Y027652D03*
X037500Y028652D03*
X038500Y028652D03*
X038500Y029652D03*
X037500Y029652D03*
X037500Y030652D03*
X038500Y030652D03*
D13*
X012500Y033652D03*
X011500Y033652D03*
X009000Y014652D03*
X008000Y014652D03*
D14*
X043000Y007935D03*
X046000Y007935D03*
X053000Y007935D03*
X056000Y007935D03*
X063000Y007935D03*
X066000Y007935D03*
X073000Y007935D03*
X076000Y007935D03*
X083000Y007935D03*
X086000Y007935D03*
X093000Y007935D03*
X096000Y007935D03*
X103000Y007935D03*
X106000Y007935D03*
X113000Y007935D03*
X116000Y007935D03*
X125500Y007935D03*
X128500Y007935D03*
X138500Y007935D03*
X141500Y007935D03*
X143248Y003931D03*
X130248Y003931D03*
X117748Y003931D03*
X107748Y003931D03*
X097748Y003931D03*
X087748Y003931D03*
X077748Y003931D03*
X067748Y003931D03*
X057748Y003931D03*
X047748Y003931D03*
D15*
X046000Y006433D03*
X043000Y006433D03*
X053000Y006433D03*
X056000Y006433D03*
X063000Y006433D03*
X066000Y006433D03*
X073000Y006433D03*
X076000Y006433D03*
X083000Y006433D03*
X086000Y006433D03*
X093000Y006433D03*
X096000Y006433D03*
X103000Y006433D03*
X106000Y006433D03*
X113000Y006433D03*
X116000Y006433D03*
X125500Y006433D03*
X128500Y006433D03*
X138500Y006433D03*
X141500Y006433D03*
D16*
X064484Y039799D02*
X064484Y040504D01*
X062516Y040504D02*
X062516Y039799D01*
X059984Y039799D02*
X059984Y040504D01*
X058016Y040504D02*
X058016Y039799D01*
X054484Y039799D02*
X054484Y040504D01*
X052516Y040504D02*
X052516Y039799D01*
X050484Y039799D02*
X050484Y040504D01*
X048516Y040504D02*
X048516Y039799D01*
X022484Y040004D02*
X022484Y039299D01*
X020516Y039299D02*
X020516Y040004D01*
X017984Y040004D02*
X017984Y039299D01*
X016016Y039299D02*
X016016Y040004D01*
X013484Y040004D02*
X013484Y039299D01*
X011516Y039299D02*
X011516Y040004D01*
D17*
X050000Y033452D02*
X050000Y032852D01*
X051000Y032852D02*
X051000Y033452D01*
X052000Y033452D02*
X052000Y032852D01*
X060500Y033852D02*
X060500Y034452D01*
X061500Y034452D02*
X061500Y033852D01*
X062500Y033852D02*
X062500Y034452D01*
X073700Y035652D02*
X074300Y035652D01*
X074300Y036652D02*
X073700Y036652D01*
X073700Y037652D02*
X074300Y037652D01*
X090500Y039352D02*
X090500Y039952D01*
X091500Y039952D02*
X091500Y039352D01*
X092500Y039352D02*
X092500Y039952D01*
X093500Y039952D02*
X093500Y039352D01*
X094500Y039352D02*
X094500Y039952D01*
X095500Y039952D02*
X095500Y039352D01*
X096500Y039352D02*
X096500Y039952D01*
X097500Y039952D02*
X097500Y039352D01*
X100500Y039352D02*
X100500Y039952D01*
X101500Y039952D02*
X101500Y039352D01*
X102500Y039352D02*
X102500Y039952D01*
X103500Y039952D02*
X103500Y039352D01*
X104500Y039352D02*
X104500Y039952D01*
X105500Y039952D02*
X105500Y039352D01*
X106500Y039352D02*
X106500Y039952D01*
X107500Y039952D02*
X107500Y039352D01*
X131500Y031452D02*
X131500Y030852D01*
X132500Y030852D02*
X132500Y031452D01*
X133500Y031452D02*
X133500Y030852D01*
X133500Y026952D02*
X133500Y026352D01*
X132500Y026352D02*
X132500Y026952D01*
X131500Y026952D02*
X131500Y026352D01*
X131500Y021952D02*
X131500Y021352D01*
X132500Y021352D02*
X132500Y021952D01*
X133500Y021952D02*
X133500Y021352D01*
X129800Y018152D02*
X129200Y018152D01*
X129200Y017152D02*
X129800Y017152D01*
X129800Y016152D02*
X129200Y016152D01*
X129200Y015152D02*
X129800Y015152D01*
X129800Y014152D02*
X129200Y014152D01*
X129200Y013152D02*
X129800Y013152D01*
X129800Y012152D02*
X129200Y012152D01*
X129200Y011152D02*
X129800Y011152D01*
X124800Y011152D02*
X124200Y011152D01*
X124200Y012152D02*
X124800Y012152D01*
X124800Y013152D02*
X124200Y013152D01*
X124200Y014152D02*
X124800Y014152D01*
X124800Y015152D02*
X124200Y015152D01*
X124200Y016152D02*
X124800Y016152D01*
X124800Y017152D02*
X124200Y017152D01*
X124200Y018152D02*
X124800Y018152D01*
D18*
X113000Y011652D03*
X103000Y011652D03*
X093000Y011652D03*
X083000Y011652D03*
X073000Y011652D03*
X063000Y011652D03*
X053000Y011652D03*
X043000Y011652D03*
X057000Y035652D03*
X062500Y036652D03*
X076000Y035652D03*
X137000Y010652D03*
D19*
X138000Y010652D03*
X114000Y011652D03*
X104000Y011652D03*
X094000Y011652D03*
X084000Y011652D03*
X074000Y011652D03*
X064000Y011652D03*
X054000Y011652D03*
X044000Y011652D03*
X056000Y035652D03*
X061500Y036652D03*
X076000Y036652D03*
D20*
X080000Y036652D03*
X061500Y031652D03*
X051000Y035652D03*
D21*
X050000Y035652D03*
X062500Y031652D03*
X080000Y035652D03*
D22*
X078000Y035652D03*
X078000Y036652D03*
X058500Y036652D03*
X058500Y035652D03*
X051000Y031277D03*
X050000Y031277D03*
D23*
X049830Y037652D02*
X049170Y037652D01*
X054170Y037652D02*
X054830Y037652D01*
X136670Y025152D02*
X137330Y025152D01*
X141670Y025152D02*
X142330Y025152D01*
X142330Y023152D02*
X141670Y023152D01*
X137330Y023152D02*
X136670Y023152D01*
X137670Y020652D02*
X138330Y020652D01*
X142670Y020652D02*
X143330Y020652D01*
X143330Y018652D02*
X142670Y018652D01*
X138330Y018652D02*
X137670Y018652D01*
X118000Y010982D02*
X118000Y010322D01*
X117000Y010322D02*
X117000Y010982D01*
X116000Y010982D02*
X116000Y010322D01*
X108000Y010322D02*
X108000Y010982D01*
X107000Y010982D02*
X107000Y010322D01*
X106000Y010322D02*
X106000Y010982D01*
X098000Y010982D02*
X098000Y010322D01*
X097000Y010322D02*
X097000Y010982D01*
X096000Y010982D02*
X096000Y010322D01*
X088500Y010322D02*
X088500Y010982D01*
X087500Y010982D02*
X087500Y010322D01*
X086500Y010322D02*
X086500Y010982D01*
X078500Y010982D02*
X078500Y010322D01*
X077500Y010322D02*
X077500Y010982D01*
X076500Y010982D02*
X076500Y010322D01*
X068500Y010322D02*
X068500Y010982D01*
X067500Y010982D02*
X067500Y010322D01*
X066500Y010322D02*
X066500Y010982D01*
X058500Y010982D02*
X058500Y010322D01*
X057500Y010322D02*
X057500Y010982D01*
X056500Y010982D02*
X056500Y010322D01*
X048500Y010322D02*
X048500Y010982D01*
X047500Y010982D02*
X047500Y010322D01*
X046500Y010322D02*
X046500Y010982D01*
D24*
X007217Y002139D03*
X011157Y002139D03*
X016717Y002139D03*
X020657Y002139D03*
X021626Y006069D03*
X020654Y007065D03*
X018681Y006073D03*
X016717Y007061D03*
X015717Y006069D03*
X012126Y006069D03*
X011154Y007065D03*
X009181Y006073D03*
X007217Y007061D03*
X006217Y006069D03*
D25*
X007000Y010152D03*
X007000Y012152D03*
X132000Y013652D03*
X133000Y013652D03*
X133000Y010652D03*
X132000Y010652D03*
X139500Y009652D03*
X140500Y009652D03*
X134000Y017152D03*
X132000Y017152D03*
D26*
X044500Y038152D03*
X043500Y038152D03*
X015000Y012152D03*
X018000Y011652D03*
X020500Y011652D03*
X015000Y011152D03*
X018000Y008652D03*
X020500Y008652D03*
X014500Y008152D03*
X011500Y008152D03*
X008000Y009152D03*
X008000Y012152D03*
D27*
X008980Y012652D02*
X009500Y012652D01*
X009500Y011652D02*
X008980Y011652D01*
X012500Y011652D02*
X013020Y011652D01*
X013020Y012652D02*
X012500Y012652D01*
X012500Y010652D02*
X013020Y010652D01*
X013020Y009652D02*
X012500Y009652D01*
X009500Y009652D02*
X008980Y009652D01*
X008980Y010652D02*
X009500Y010652D01*
D28*
X136500Y012797D02*
X136500Y013506D01*
X137500Y013506D02*
X137500Y012797D01*
X138500Y012797D02*
X138500Y013506D01*
X139500Y013506D02*
X139500Y012797D01*
X140500Y012797D02*
X140500Y013506D01*
X141500Y013506D02*
X141500Y012797D01*
X142500Y012797D02*
X142500Y013506D01*
X143500Y013506D02*
X143500Y012797D01*
X143000Y014797D02*
X143000Y015506D01*
X142000Y015506D02*
X142000Y014797D01*
X141000Y014797D02*
X141000Y015506D01*
X140000Y015506D02*
X140000Y014797D01*
X139000Y014797D02*
X139000Y015506D01*
X138000Y015506D02*
X138000Y014797D01*
X137000Y014797D02*
X137000Y015506D01*
D29*
X110500Y015709D02*
X110500Y016594D01*
X100500Y016594D02*
X100500Y015709D01*
X091000Y015709D02*
X091000Y016594D01*
X081000Y016594D02*
X081000Y015709D01*
X071000Y015709D02*
X071000Y016594D01*
X061000Y016594D02*
X061000Y015709D01*
X051000Y015709D02*
X051000Y016594D01*
X041000Y016594D02*
X041000Y015709D01*
X041000Y010594D02*
X041000Y009709D01*
X051000Y009709D02*
X051000Y010594D01*
X061000Y010594D02*
X061000Y009709D01*
X071000Y009709D02*
X071000Y010594D01*
X081000Y010594D02*
X081000Y009709D01*
X091000Y009709D02*
X091000Y010594D01*
X100500Y010594D02*
X100500Y009709D01*
X110500Y009709D02*
X110500Y010594D01*
D30*
X044500Y040782D02*
X044500Y041522D01*
X043500Y041522D02*
X043500Y040782D01*
X042500Y040782D02*
X042500Y041522D01*
D31*
X128625Y037027D02*
X129025Y037027D01*
X129125Y037027D02*
X129127Y037071D01*
X129133Y037115D01*
X129143Y037158D01*
X129156Y037200D01*
X129173Y037241D01*
X129194Y037280D01*
X129218Y037317D01*
X129245Y037352D01*
X129275Y037384D01*
X129308Y037414D01*
X129344Y037440D01*
X129381Y037464D01*
X129421Y037483D01*
X129462Y037500D01*
X129505Y037512D01*
X129548Y037521D01*
X129592Y037526D01*
X129636Y037527D01*
X129680Y037524D01*
X129724Y037517D01*
X129767Y037506D01*
X129809Y037492D01*
X129849Y037474D01*
X129888Y037452D01*
X129924Y037428D01*
X129958Y037400D01*
X129990Y037369D01*
X130019Y037335D01*
X130045Y037299D01*
X130067Y037261D01*
X130086Y037221D01*
X130101Y037179D01*
X130113Y037137D01*
X130121Y037093D01*
X130125Y037049D01*
X130125Y037005D01*
X130121Y036961D01*
X130113Y036917D01*
X130101Y036875D01*
X130086Y036833D01*
X130067Y036793D01*
X130045Y036755D01*
X130019Y036719D01*
X129990Y036685D01*
X129958Y036654D01*
X129924Y036626D01*
X129888Y036602D01*
X129849Y036580D01*
X129809Y036562D01*
X129767Y036548D01*
X129724Y036537D01*
X129680Y036530D01*
X129636Y036527D01*
X129592Y036528D01*
X129548Y036533D01*
X129505Y036542D01*
X129462Y036554D01*
X129421Y036571D01*
X129381Y036590D01*
X129344Y036614D01*
X129308Y036640D01*
X129275Y036670D01*
X129245Y036702D01*
X129218Y036737D01*
X129194Y036774D01*
X129173Y036813D01*
X129156Y036854D01*
X129143Y036896D01*
X129133Y036939D01*
X129127Y036983D01*
X129125Y037027D01*
X129625Y036427D02*
X129625Y036027D01*
X130225Y037027D02*
X130625Y037027D01*
X129625Y037627D02*
X129625Y038027D01*
D32*
X130054Y037056D02*
X129649Y037051D01*
X129649Y037051D01*
X129654Y037456D01*
X129655Y037457D01*
X129694Y037453D01*
X129732Y037446D01*
X129769Y037435D01*
X129805Y037421D01*
X129840Y037404D01*
X129872Y037383D01*
X129903Y037360D01*
X129932Y037334D01*
X129958Y037305D01*
X129981Y037274D01*
X130002Y037242D01*
X130019Y037207D01*
X130033Y037171D01*
X130044Y037134D01*
X130051Y037096D01*
X130055Y037057D01*
X130017Y037057D01*
X130014Y037094D01*
X130006Y037131D01*
X129995Y037167D01*
X129981Y037201D01*
X129963Y037234D01*
X129942Y037265D01*
X129919Y037294D01*
X129892Y037321D01*
X129863Y037344D01*
X129832Y037365D01*
X129799Y037383D01*
X129765Y037397D01*
X129729Y037408D01*
X129692Y037416D01*
X129655Y037419D01*
X129655Y037382D01*
X129691Y037378D01*
X129726Y037371D01*
X129760Y037360D01*
X129793Y037345D01*
X129824Y037327D01*
X129853Y037306D01*
X129880Y037282D01*
X129904Y037255D01*
X129925Y037226D01*
X129943Y037195D01*
X129958Y037162D01*
X129969Y037128D01*
X129976Y037093D01*
X129980Y037057D01*
X129943Y037057D01*
X129939Y037091D01*
X129931Y037124D01*
X129920Y037157D01*
X129905Y037187D01*
X129887Y037216D01*
X129865Y037243D01*
X129841Y037267D01*
X129814Y037289D01*
X129785Y037307D01*
X129755Y037322D01*
X129722Y037333D01*
X129689Y037341D01*
X129655Y037345D01*
X129655Y037308D01*
X129687Y037304D01*
X129718Y037296D01*
X129748Y037284D01*
X129777Y037269D01*
X129803Y037251D01*
X129827Y037229D01*
X129849Y037205D01*
X129867Y037179D01*
X129882Y037150D01*
X129894Y037120D01*
X129902Y037089D01*
X129906Y037057D01*
X129869Y037057D01*
X129865Y037087D01*
X129857Y037115D01*
X129845Y037143D01*
X129830Y037169D01*
X129811Y037192D01*
X129790Y037213D01*
X129767Y037232D01*
X129741Y037247D01*
X129713Y037259D01*
X129685Y037267D01*
X129655Y037271D01*
X129655Y037234D01*
X129682Y037229D01*
X129707Y037221D01*
X129732Y037210D01*
X129755Y037195D01*
X129775Y037177D01*
X129793Y037157D01*
X129808Y037134D01*
X129819Y037109D01*
X129827Y037084D01*
X129832Y037057D01*
X129795Y037057D01*
X129790Y037080D01*
X129782Y037102D01*
X129771Y037123D01*
X129757Y037142D01*
X129740Y037159D01*
X129721Y037173D01*
X129700Y037184D01*
X129678Y037192D01*
X129655Y037197D01*
X129655Y037159D01*
X129674Y037155D01*
X129692Y037147D01*
X129708Y037137D01*
X129723Y037125D01*
X129735Y037110D01*
X129745Y037094D01*
X129753Y037076D01*
X129757Y037057D01*
X129720Y037057D01*
X129715Y037072D01*
X129707Y037086D01*
X129697Y037099D01*
X129684Y037109D01*
X129670Y037117D01*
X129655Y037122D01*
X129654Y037083D01*
X129666Y037077D01*
X129675Y037068D01*
X129681Y037056D01*
X129196Y036998D02*
X129601Y037003D01*
X129601Y037003D01*
X129596Y036598D01*
X129595Y036597D01*
X129556Y036601D01*
X129518Y036608D01*
X129481Y036619D01*
X129445Y036633D01*
X129410Y036650D01*
X129378Y036671D01*
X129347Y036694D01*
X129318Y036720D01*
X129292Y036749D01*
X129269Y036780D01*
X129248Y036812D01*
X129231Y036847D01*
X129217Y036883D01*
X129206Y036920D01*
X129199Y036958D01*
X129195Y036997D01*
X129233Y036997D01*
X129236Y036960D01*
X129244Y036923D01*
X129255Y036887D01*
X129269Y036853D01*
X129287Y036820D01*
X129308Y036789D01*
X129331Y036760D01*
X129358Y036733D01*
X129387Y036710D01*
X129418Y036689D01*
X129451Y036671D01*
X129485Y036657D01*
X129521Y036646D01*
X129558Y036638D01*
X129595Y036635D01*
X129595Y036672D01*
X129559Y036676D01*
X129524Y036683D01*
X129490Y036694D01*
X129457Y036709D01*
X129426Y036727D01*
X129397Y036748D01*
X129370Y036772D01*
X129346Y036799D01*
X129325Y036828D01*
X129307Y036859D01*
X129292Y036892D01*
X129281Y036926D01*
X129274Y036961D01*
X129270Y036997D01*
X129307Y036997D01*
X129311Y036963D01*
X129319Y036930D01*
X129330Y036897D01*
X129345Y036867D01*
X129363Y036838D01*
X129385Y036811D01*
X129409Y036787D01*
X129436Y036765D01*
X129465Y036747D01*
X129495Y036732D01*
X129528Y036721D01*
X129561Y036713D01*
X129595Y036709D01*
X129595Y036746D01*
X129563Y036750D01*
X129532Y036758D01*
X129502Y036770D01*
X129473Y036785D01*
X129447Y036803D01*
X129423Y036825D01*
X129401Y036849D01*
X129383Y036875D01*
X129368Y036904D01*
X129356Y036934D01*
X129348Y036965D01*
X129344Y036997D01*
X129381Y036997D01*
X129385Y036967D01*
X129393Y036939D01*
X129405Y036911D01*
X129420Y036885D01*
X129439Y036862D01*
X129460Y036841D01*
X129483Y036822D01*
X129509Y036807D01*
X129537Y036795D01*
X129565Y036787D01*
X129595Y036783D01*
X129595Y036820D01*
X129568Y036825D01*
X129543Y036833D01*
X129518Y036844D01*
X129495Y036859D01*
X129475Y036877D01*
X129457Y036897D01*
X129442Y036920D01*
X129431Y036945D01*
X129423Y036970D01*
X129418Y036997D01*
X129455Y036997D01*
X129460Y036974D01*
X129468Y036952D01*
X129479Y036931D01*
X129493Y036912D01*
X129510Y036895D01*
X129529Y036881D01*
X129550Y036870D01*
X129572Y036862D01*
X129595Y036857D01*
X129595Y036895D01*
X129576Y036899D01*
X129558Y036907D01*
X129542Y036917D01*
X129527Y036929D01*
X129515Y036944D01*
X129505Y036960D01*
X129497Y036978D01*
X129493Y036997D01*
X129530Y036997D01*
X129535Y036982D01*
X129543Y036968D01*
X129553Y036955D01*
X129566Y036945D01*
X129580Y036937D01*
X129595Y036932D01*
X129596Y036971D01*
X129584Y036977D01*
X129575Y036986D01*
X129569Y036998D01*
D33*
X142000Y025152D02*
X142000Y024652D01*
X138000Y020652D01*
X135500Y018152D01*
X135000Y018152D01*
X134000Y017152D01*
X134000Y014652D01*
X133000Y013652D01*
X132500Y012152D02*
X131500Y011152D01*
X129500Y011152D01*
X127000Y008652D01*
X115500Y008652D01*
X114000Y010152D01*
X114000Y011652D01*
X115500Y008652D02*
X116000Y008152D01*
X116000Y007935D01*
X106000Y007935D02*
X106000Y008152D01*
X104000Y010152D01*
X104000Y011652D01*
X096000Y008152D02*
X094000Y010152D01*
X094000Y011652D01*
X086000Y008152D02*
X084000Y010152D01*
X084000Y011652D01*
X076000Y008152D02*
X074000Y010152D01*
X074000Y011652D01*
X066000Y008152D02*
X064000Y010152D01*
X062000Y008152D01*
X056000Y008152D01*
X056000Y007935D01*
X056000Y008152D02*
X054000Y010152D01*
X054000Y011652D01*
X046000Y008152D02*
X044000Y010152D01*
X044000Y011652D01*
X046000Y008152D02*
X046000Y007935D01*
X064000Y010152D02*
X064000Y011652D01*
X066000Y008152D02*
X066000Y007935D01*
X076000Y007935D02*
X076000Y008152D01*
X086000Y008152D02*
X086000Y007935D01*
X096000Y007935D02*
X096000Y008152D01*
X061000Y016152D02*
X060125Y017152D01*
X060125Y030152D01*
X060500Y030652D01*
X060500Y034152D01*
X058500Y035652D02*
X056500Y037652D01*
X054500Y037652D01*
X058500Y035652D02*
X060000Y037152D01*
X060000Y040152D01*
X059984Y040152D01*
X135500Y018152D02*
X138000Y015652D01*
X138000Y015152D01*
D34*
X133000Y015152D03*
X135000Y017152D03*
X135500Y017152D03*
X133500Y018652D03*
X132500Y019152D03*
X140000Y020152D03*
X140500Y020652D03*
X137500Y021652D03*
X138500Y022652D03*
X142000Y019152D03*
X140500Y017152D03*
X144000Y016652D03*
X132500Y012152D03*
X131500Y012152D03*
X128500Y011152D03*
X136000Y011652D03*
X139500Y011652D03*
X061000Y017652D03*
X044000Y017402D03*
X040500Y013652D03*
X062500Y038652D03*
X044000Y039652D03*
D35*
X039500Y035402D02*
X037250Y035402D01*
X036000Y034152D01*
X036000Y033402D01*
X034250Y031652D01*
X034250Y030152D01*
X034750Y029652D01*
X037500Y029652D01*
X037500Y030652D02*
X036500Y031652D01*
X036500Y033902D01*
X037500Y034902D01*
X039250Y034902D01*
X041250Y032902D01*
X041250Y028652D01*
X041500Y028402D01*
X044000Y028402D01*
X044250Y028652D01*
X046250Y028652D01*
X047250Y029652D01*
X049875Y029652D01*
X050500Y030152D02*
X045250Y030152D01*
X044000Y028902D01*
X041750Y028902D01*
X041750Y033152D01*
X039500Y035402D01*
X029000Y040652D02*
X027500Y039152D01*
X027500Y029402D01*
X021000Y028652D02*
X021000Y035402D01*
X022484Y036886D01*
X022484Y039652D01*
X017984Y039652D02*
X017984Y037668D01*
X020250Y035402D01*
X020250Y028152D01*
X020750Y027652D01*
X037500Y027652D01*
X038500Y027652D02*
X038500Y026902D01*
X020500Y026902D01*
X019500Y027902D01*
X019500Y034902D01*
X016750Y037652D01*
X013500Y037652D01*
X013484Y037668D01*
X013484Y039652D01*
X046500Y028152D02*
X047500Y029152D01*
X050500Y029152D01*
X047500Y028652D02*
X046500Y027652D01*
X044500Y027652D01*
X044250Y027402D01*
X042000Y027402D01*
X042500Y027902D02*
X044000Y027902D01*
X044250Y028152D01*
X046500Y028152D01*
X047500Y028152D02*
X056000Y028152D01*
X056000Y030652D01*
X059250Y030652D01*
X058250Y030152D02*
X056375Y030152D01*
X056375Y027652D01*
X047500Y027652D01*
X046500Y026652D01*
X044750Y026652D01*
X044000Y025902D01*
X042500Y025902D01*
X042000Y026402D02*
X044000Y026402D01*
X044750Y027152D01*
X046500Y027152D01*
X047500Y028152D01*
X047500Y028652D02*
X055250Y028652D01*
X057125Y029152D02*
X057625Y029152D01*
X057125Y029152D02*
X057125Y027027D01*
X056750Y026652D01*
X047500Y026652D01*
X046500Y025652D01*
X044750Y025652D01*
X044000Y024902D01*
X042500Y024902D01*
X042000Y025402D02*
X044000Y025402D01*
X044750Y026152D01*
X046500Y026152D01*
X047500Y027152D01*
X056750Y027152D01*
X056750Y029652D01*
X059375Y029652D01*
X058500Y028652D02*
X057500Y028652D01*
X057500Y026902D01*
X056750Y026152D01*
X047750Y026152D01*
X046750Y025152D01*
X045000Y025152D01*
X044250Y024402D01*
X042000Y024402D01*
X042500Y023902D02*
X044500Y023902D01*
X045250Y024652D01*
X046750Y024652D01*
X047750Y025652D01*
X056750Y025652D01*
X057875Y026777D01*
X057875Y028152D01*
X059375Y028152D01*
X058625Y027652D02*
X058250Y027652D01*
X058250Y026652D01*
X056750Y025152D01*
X047750Y025152D01*
X046750Y024152D01*
X045500Y024152D01*
X044750Y023402D01*
X042000Y023402D01*
X042500Y022902D02*
X044750Y022902D01*
X045500Y023652D01*
X046750Y023652D01*
X047750Y024652D01*
X056750Y024652D01*
X058625Y026527D01*
X058625Y027152D01*
X059500Y027152D01*
X059125Y026652D02*
X059000Y026652D01*
X059000Y026402D01*
X056750Y024152D01*
X047750Y024152D01*
X046750Y023152D01*
X045500Y023152D01*
X044750Y022402D01*
X042000Y022402D01*
X042500Y021902D02*
X044750Y021902D01*
X045500Y022652D01*
X046750Y022652D01*
X047750Y023652D01*
X056750Y023652D01*
X059250Y026152D01*
X059500Y026152D01*
X062250Y025652D02*
X065000Y025652D01*
X067000Y027652D01*
X094250Y027652D01*
X101500Y034902D01*
X102000Y034402D02*
X094750Y027152D01*
X067250Y027152D01*
X065250Y025152D01*
X063250Y025152D01*
X062250Y024652D02*
X065250Y024652D01*
X067250Y026652D01*
X095250Y026652D01*
X102500Y033902D01*
X112000Y034902D02*
X136000Y034902D01*
X137000Y033902D01*
X137000Y026402D01*
X134500Y023902D01*
X134500Y023652D01*
X128250Y017152D02*
X125250Y020152D01*
X122500Y020152D01*
X118750Y020152D02*
X105250Y020152D01*
X104000Y021402D01*
X103500Y021402D01*
X105500Y020902D02*
X118000Y020902D01*
X117750Y022402D02*
X070500Y022402D01*
X067750Y019652D01*
X062250Y019652D01*
X062250Y020152D02*
X067500Y020152D01*
X070250Y022902D01*
X118250Y022902D01*
X123000Y018152D01*
X124500Y018152D01*
X124500Y017152D02*
X123000Y017152D01*
X117750Y022402D01*
X104500Y019902D02*
X103000Y018402D01*
X099500Y018402D01*
X098000Y019902D01*
X094250Y019902D01*
X092500Y018152D01*
X090250Y018152D01*
X088500Y019902D01*
X084750Y019902D01*
X084750Y018652D01*
X080000Y018652D01*
X078750Y019902D01*
X074750Y019902D01*
X074500Y021402D02*
X080500Y021402D01*
X080500Y020402D02*
X070500Y020402D01*
X070250Y018152D02*
X065750Y013652D01*
X058750Y013652D01*
X056500Y011402D01*
X056500Y010652D01*
X046500Y010652D02*
X046500Y014152D01*
X046250Y014402D01*
X046250Y018152D01*
X047000Y018902D01*
X050750Y018902D01*
X048750Y020652D02*
X047750Y019652D01*
X046500Y019652D01*
X045000Y018152D01*
X044000Y018152D01*
X043750Y017902D01*
X043250Y017902D01*
X043500Y018402D02*
X043750Y018652D01*
X045000Y018652D01*
X046500Y020152D01*
X047500Y020152D01*
X048500Y021152D01*
X051000Y021152D01*
X050500Y021652D02*
X048250Y021652D01*
X047250Y020652D01*
X046250Y020652D01*
X044750Y019152D01*
X043500Y019152D01*
X043250Y018902D01*
X043000Y019402D02*
X043250Y019652D01*
X044500Y019652D01*
X044750Y019902D01*
X045250Y020402D02*
X046000Y021152D01*
X047000Y021152D01*
X048000Y022152D01*
X051000Y022152D01*
X050500Y022652D02*
X047750Y022652D01*
X046750Y021652D01*
X045750Y021652D01*
X045000Y020902D01*
X034750Y020902D01*
X034750Y018902D01*
X036000Y017652D01*
X037500Y017652D01*
X037500Y018652D02*
X036000Y018652D01*
X035250Y019402D01*
X035250Y020402D01*
X045250Y020402D01*
X044750Y021402D02*
X045500Y022152D01*
X046750Y022152D01*
X047750Y023152D01*
X051000Y023152D01*
X050500Y020652D02*
X048750Y020652D01*
X044750Y021402D02*
X034500Y021402D01*
X034250Y021152D01*
X034250Y018152D01*
X035750Y016652D01*
X037500Y016652D01*
X042250Y017152D02*
X042250Y019902D01*
X042750Y019402D02*
X043000Y019402D01*
X042750Y018402D02*
X043500Y018402D01*
X051000Y016152D02*
X054000Y016152D01*
X055000Y015152D01*
X060000Y015152D01*
X061000Y016152D01*
X066500Y011902D02*
X068000Y013402D01*
X070250Y013402D01*
X074000Y017152D01*
X081750Y012652D02*
X084000Y014902D01*
X084000Y017152D01*
X090000Y016902D02*
X090000Y015152D01*
X091250Y013402D02*
X093500Y015652D01*
X093500Y017152D01*
X095750Y017152D02*
X096000Y016902D01*
X096000Y010652D01*
X091250Y013402D02*
X088250Y013402D01*
X086500Y011652D01*
X086500Y010652D01*
X081750Y012652D02*
X077500Y012652D01*
X076500Y011652D01*
X076500Y010652D01*
X066500Y010652D02*
X066500Y011902D01*
X080500Y020402D02*
X090000Y020402D01*
X099500Y020402D01*
X099500Y021402D02*
X094000Y021402D01*
X090000Y021402D01*
X084500Y021402D01*
X103000Y017152D02*
X106000Y014152D01*
X106000Y010652D01*
X128250Y017152D02*
X129500Y017152D01*
X105500Y039652D02*
X094000Y028152D01*
X071000Y028152D01*
X070000Y028652D02*
X093500Y028652D01*
X104500Y039652D01*
X103500Y039652D02*
X093000Y029152D01*
X068000Y029152D01*
X069125Y029652D02*
X092500Y029652D01*
X102500Y039652D01*
X101500Y039652D02*
X092000Y030152D01*
X068250Y030152D01*
X069250Y030652D02*
X087500Y030652D01*
X096500Y039652D01*
X094500Y039652D02*
X086000Y031152D01*
X068125Y031152D01*
X069500Y031652D02*
X085500Y031652D01*
X093500Y039652D01*
X092500Y039652D02*
X085000Y032152D01*
X066875Y032152D01*
X068625Y032652D02*
X084500Y032652D01*
X091500Y039652D01*
X113250Y034402D02*
X135750Y034402D01*
X136500Y033652D01*
X136500Y030652D01*
X134500Y028652D01*
X133500Y031152D02*
X135500Y033152D01*
X135500Y033902D01*
X114625Y033902D01*
X043750Y026902D02*
X042500Y026902D01*
X037500Y028652D02*
X021000Y028652D01*
X027500Y026152D02*
X027500Y014652D01*
X029500Y014652D02*
X029500Y009902D01*
X030500Y008902D01*
X031500Y008902D01*
X028000Y010652D02*
X026500Y012152D01*
X026500Y015902D01*
X024250Y017402D02*
X023500Y016652D01*
X023500Y014652D01*
X023000Y015152D02*
X022500Y014652D01*
X023000Y015152D02*
X023000Y016902D01*
X023750Y017652D01*
X023750Y020902D01*
X024250Y021402D01*
X026375Y021402D01*
X025500Y021902D02*
X024000Y021902D01*
X023250Y021152D01*
X023250Y017902D01*
X022500Y017152D01*
X022500Y015902D01*
X022000Y015402D01*
X019250Y015402D01*
X018500Y014652D01*
X018750Y013652D02*
X016250Y011152D01*
X015000Y011152D01*
X018000Y011652D02*
X019500Y013152D01*
X024500Y013152D01*
X024500Y014652D01*
X021750Y016402D02*
X021500Y016152D01*
X021750Y016402D02*
X021750Y017652D01*
X022000Y017902D01*
X022500Y017902D01*
X022750Y018152D01*
X022750Y021402D01*
X023750Y022402D01*
X026375Y022402D01*
X025500Y022902D02*
X023500Y022902D01*
X022250Y021652D01*
X022250Y018652D01*
X022000Y018402D01*
X021500Y018402D01*
X020500Y017402D01*
X020500Y016152D01*
X024250Y017402D02*
X024250Y020652D01*
X024500Y020902D01*
X025500Y020902D01*
X018000Y024402D02*
X013500Y024402D01*
X011500Y022402D01*
X011500Y017902D01*
X011750Y017652D01*
X014500Y017652D01*
X016000Y016152D01*
X015000Y016152D02*
X014000Y017152D01*
X011500Y017152D01*
X011000Y017652D01*
X011000Y022652D01*
X013250Y024902D01*
X019125Y024902D01*
X018000Y025402D02*
X013000Y025402D01*
X010500Y022902D01*
X010500Y017402D01*
X011250Y016652D01*
X013500Y016652D01*
X014000Y016152D01*
X023250Y012402D02*
X023250Y010652D01*
X130250Y003902D02*
X136250Y003902D01*
X136750Y003402D01*
X140500Y003402D01*
X141000Y003902D01*
X143250Y003902D01*
D36*
X130500Y004152D02*
X130248Y003931D01*
X130500Y004152D02*
X130500Y009152D01*
X132000Y010652D01*
X131500Y012152D02*
X129500Y012152D01*
X132000Y013652D02*
X133000Y014652D01*
X133000Y015152D01*
X135000Y017152D02*
X135000Y013152D01*
X136000Y012152D01*
X140000Y012152D01*
X140500Y012652D01*
X140500Y013152D01*
X143500Y013152D02*
X144000Y013652D01*
X144000Y015652D01*
X143000Y016652D01*
X139500Y016652D01*
X140000Y016152D01*
X140000Y015152D01*
X139500Y016652D02*
X138000Y018152D01*
X138000Y018652D01*
X138500Y018652D01*
X139500Y019652D01*
X139500Y020652D01*
X142000Y023152D01*
X131000Y018652D02*
X129500Y020152D01*
X131000Y018652D02*
X133500Y018652D01*
X132000Y017152D02*
X131000Y018152D01*
X129500Y018152D01*
X097748Y003931D02*
X095750Y003902D01*
X093750Y001902D01*
X084000Y001902D01*
X074000Y001902D01*
X064250Y001902D01*
X053750Y001902D01*
X055500Y003902D01*
X057748Y003931D01*
X053750Y001902D02*
X050000Y001902D01*
X048000Y004152D01*
X047748Y003931D01*
X036750Y008152D02*
X036500Y008152D01*
X036500Y008652D01*
X036000Y009152D01*
X034500Y009152D01*
X033500Y008152D01*
X033750Y008152D01*
X033500Y008152D02*
X029250Y008152D01*
X029000Y008152D01*
X029000Y008652D01*
X028500Y009152D01*
X027000Y009152D01*
X026000Y008152D01*
X026250Y008152D01*
X026000Y008152D02*
X024500Y009652D01*
X024000Y009652D01*
X025000Y010652D01*
X024000Y009652D02*
X012500Y009652D01*
X019500Y016152D02*
X016500Y019152D01*
X016000Y019152D01*
X040500Y013652D02*
X044000Y017402D01*
X061000Y017652D02*
X061000Y030152D01*
X062500Y031652D01*
X062500Y034152D01*
X062500Y036652D01*
X062500Y038652D01*
X062500Y040152D01*
X062516Y040152D01*
X062500Y040152D02*
X063500Y041152D01*
X068000Y041152D01*
X073500Y035652D01*
X074000Y035652D01*
X076000Y035652D02*
X076500Y036152D01*
X077500Y036152D01*
X078000Y035652D01*
X078500Y036152D01*
X079500Y036152D01*
X080000Y035652D01*
X061500Y034152D02*
X061500Y031652D01*
X057000Y035652D02*
X055500Y034152D01*
X051000Y034152D01*
X051000Y033152D01*
X051000Y031277D01*
X050000Y033152D02*
X047000Y036152D01*
X043500Y036152D01*
X043500Y038152D02*
X043500Y038652D01*
X040500Y041652D01*
X022500Y041652D01*
X020500Y039652D01*
X020516Y039652D01*
X020500Y039652D02*
X018500Y041652D01*
X016000Y041652D01*
X015000Y040652D01*
X016000Y039652D01*
X016016Y039652D01*
X015000Y040652D02*
X012500Y040652D01*
X011500Y039652D01*
X011516Y039652D01*
X037500Y031652D02*
X038500Y031652D01*
X050000Y035652D02*
X051000Y034652D01*
X051000Y034152D01*
X044500Y038152D02*
X044500Y041152D01*
X043500Y041152D02*
X043500Y039652D01*
X044000Y039652D01*
X043500Y039652D02*
X043500Y038652D01*
X106500Y039152D02*
X106500Y039652D01*
X106500Y039152D02*
X112500Y033152D01*
X131500Y033152D01*
X087748Y003931D02*
X086000Y003902D01*
X084000Y001902D01*
X077748Y003931D02*
X076000Y003902D01*
X074000Y001902D01*
X067748Y003931D02*
X066000Y003902D01*
X064250Y001902D01*
D37*
X047750Y003902D02*
X044750Y003902D01*
X043500Y002652D01*
X023500Y002652D01*
X021750Y004402D01*
X013250Y004402D01*
X013250Y008902D01*
X012500Y009652D01*
X011000Y009652D01*
X010900Y009752D01*
X010900Y014652D01*
D38*
X018750Y013652D03*
X023250Y012402D03*
X023250Y010652D03*
X031500Y008902D03*
X026500Y015902D03*
X025500Y020902D03*
X026375Y021402D03*
X025500Y021902D03*
X026375Y022402D03*
X025500Y022902D03*
X019125Y024902D03*
X018000Y025402D03*
X018000Y024402D03*
X027500Y026152D03*
X027500Y029402D03*
X042000Y027402D03*
X042500Y027902D03*
X042500Y026902D03*
X043750Y026902D03*
X042000Y026402D03*
X042500Y025902D03*
X042000Y025402D03*
X042500Y024902D03*
X042000Y024402D03*
X042500Y023902D03*
X042000Y023402D03*
X042500Y022902D03*
X042000Y022402D03*
X042500Y021902D03*
X042250Y019902D03*
X042750Y019402D03*
X043250Y018902D03*
X042750Y018402D03*
X043250Y017902D03*
X042250Y017152D03*
X050750Y018902D03*
X050500Y020652D03*
X051000Y021152D03*
X050500Y021652D03*
X051000Y022152D03*
X050500Y022652D03*
X051000Y023152D03*
X044750Y019902D03*
X062250Y020152D03*
X062250Y019652D03*
X070250Y018152D03*
X074000Y017152D03*
X074750Y019902D03*
X074500Y021402D03*
X070500Y020402D03*
X080500Y020402D03*
X080500Y021402D03*
X084500Y021402D03*
X084750Y019902D03*
X090000Y020402D03*
X090000Y021402D03*
X094000Y021402D03*
X094250Y019902D03*
X099500Y020402D03*
X099500Y021402D03*
X103500Y021402D03*
X105500Y020902D03*
X104500Y019902D03*
X103000Y017152D03*
X095750Y017152D03*
X093500Y017152D03*
X090000Y016902D03*
X090000Y015152D03*
X084000Y017152D03*
X062250Y024652D03*
X063250Y025152D03*
X062250Y025652D03*
X071000Y028152D03*
X070000Y028652D03*
X069125Y029652D03*
X068250Y030152D03*
X069250Y030652D03*
X068125Y031152D03*
X069500Y031652D03*
X066875Y032152D03*
X068625Y032652D03*
X068000Y029152D03*
X059375Y029652D03*
X058250Y030152D03*
X059250Y030652D03*
X057625Y029152D03*
X058500Y028652D03*
X055250Y028652D03*
X050500Y029152D03*
X049875Y029652D03*
X050500Y030152D03*
X043500Y036152D03*
X029000Y040652D03*
X101500Y034902D03*
X102000Y034402D03*
X102500Y033902D03*
X112000Y034902D03*
X113250Y034402D03*
X114625Y033902D03*
X118000Y020902D03*
X118750Y020152D03*
X122500Y020152D03*
D39*
X130500Y021152D02*
X130500Y022652D01*
X138500Y022652D01*
X137500Y021652D02*
X136000Y020152D01*
X132500Y020152D01*
X132500Y019152D02*
X130500Y021152D01*
X130500Y022652D02*
X130500Y029152D01*
X132500Y031152D01*
X140500Y020652D02*
X142000Y019152D01*
X143000Y017152D02*
X140000Y020152D01*
X140500Y017152D02*
X143000Y017152D01*
X143500Y017152D01*
X144000Y016652D01*
X139500Y011652D02*
X136000Y011652D01*
X046500Y011152D02*
X046500Y010652D01*
X015000Y011152D02*
X014500Y010652D01*
X012500Y010652D01*
D40*
X128500Y011152D02*
X128500Y015652D01*
X129000Y016152D01*
X129500Y016152D01*
X135500Y017152D02*
X137000Y015652D01*
X137000Y015152D01*
X137000Y014652D01*
X137500Y014152D01*
X142000Y014152D01*
X142500Y013652D01*
X142500Y013152D01*
X142500Y012652D01*
X139500Y009652D01*
D41*
X059500Y026152D03*
X059125Y026652D03*
X059500Y027152D03*
X058625Y027652D03*
X059375Y028152D03*
M02*
