%
M48
M72
T01C0.0197
T02C0.0236
T03C0.0240
T04C0.0315
T05C0.0320
T06C0.0354
T07C0.0394
T08C0.0400
T09C0.0440
T10C0.0470
T11C0.0472
T12C0.0551
T13C0.0590
T14C0.0630
T15C0.1260
T16C0.1300
%
T01
X59500Y26152
X59125Y26652
X59500Y27152
X58625Y27652
X59375Y28152
T02
X58500Y28652
X57625Y29152
X59375Y29652
X58250Y30152
X59250Y30652
X55250Y28652
X50500Y29152
X49875Y29652
X50500Y30152
X42500Y27902
X42000Y27402
X42500Y26902
X43750Y26902
X42000Y26402
X42500Y25902
X42000Y25402
X42500Y24902
X42000Y24402
X42500Y23902
X42000Y23402
X42500Y22902
X42000Y22402
X42500Y21902
X42250Y19902
X42750Y19402
X43250Y18902
X42750Y18402
X43250Y17902
X42250Y17152
X50750Y18902
X50500Y20652
X51000Y21152
X50500Y21652
X51000Y22152
X50500Y22652
X51000Y23152
X44750Y19902
X62250Y20152
X62250Y19652
X70250Y18152
X74000Y17152
X74750Y19902
X74500Y21402
X70500Y20402
X80500Y20402
X80500Y21402
X84500Y21402
X84750Y19902
X90000Y20402
X90000Y21402
X94000Y21402
X94250Y19902
X99500Y20402
X99500Y21402
X103500Y21402
X105500Y20902
X104500Y19902
X103000Y17152
X95750Y17152
X93500Y17152
X90000Y16902
X90000Y15152
X84000Y17152
X62250Y24652
X63250Y25152
X62250Y25652
X71000Y28152
X70000Y28652
X69125Y29652
X68250Y30152
X69250Y30652
X68125Y31152
X69500Y31652
X66875Y32152
X68625Y32652
X68000Y29152
X43500Y36152
X29000Y40652
X27500Y29402
X27500Y26152
X19125Y24902
X18000Y25402
X18000Y24402
X25500Y22902
X26375Y22402
X25500Y21902
X26375Y21402
X25500Y20902
X26500Y15902
X18750Y13652
X23250Y12402
X23250Y10652
X31500Y8902
X102500Y33902
X102000Y34402
X101500Y34902
X112000Y34902
X113250Y34402
X114625Y33902
X118000Y20902
X118750Y20152
X122500Y20152
T03
X132500Y19152
X133500Y18652
X135000Y17152
X135500Y17152
X140500Y17152
X144000Y16652
X142000Y19152
X140000Y20152
X140500Y20652
X137500Y21652
X138500Y22652
X133000Y15152
X132500Y12152
X131500Y12152
X128500Y11152
X136000Y11652
X139500Y11652
X61000Y17652
X44000Y17402
X40500Y13652
X62500Y38652
X44000Y39652
T04
X12500Y33652
X11500Y33652
X9000Y14652
X8000Y14652
T05
X9500Y12652
X8000Y12152
X7000Y12152
X9500Y11652
X12500Y11652
X12500Y12652
X15000Y12152
X18000Y11652
X20500Y11652
X15000Y11152
X12500Y10652
X12500Y9652
X9500Y9652
X8000Y9152
X7000Y10152
X9500Y10652
X11500Y8152
X14500Y8152
X18000Y8652
X20500Y8652
X43000Y11652
X44000Y11652
X53000Y11652
X54000Y11652
X63000Y11652
X64000Y11652
X73000Y11652
X74000Y11652
X83000Y11652
X84000Y11652
X93000Y11652
X94000Y11652
X103000Y11652
X104000Y11652
X113000Y11652
X114000Y11652
X132000Y10652
X133000Y10652
X137000Y10652
X138000Y10652
X139500Y9652
X140500Y9652
X133000Y13652
X132000Y13652
X132000Y17152
X134000Y17152
X80000Y35652
X80000Y36652
X78000Y36652
X76000Y36652
X76000Y35652
X78000Y35652
X62500Y36652
X61500Y36652
X58500Y36652
X58500Y35652
X57000Y35652
X56000Y35652
X51000Y35652
X50000Y35652
X44500Y38152
X43500Y38152
X61500Y31652
X62500Y31652
X51000Y31277
X50000Y31277
T06
X21500Y19152
X20500Y19152
X19500Y19152
X16000Y19152
X15000Y19152
X14000Y19152
X14000Y16152
X15000Y16152
X16000Y16152
X19500Y16152
X20500Y16152
X21500Y16152
X25000Y10652
X28000Y10652
X129500Y20152
X132500Y20152
X131500Y23652
X134500Y23652
X132500Y25152
X129500Y25152
X131500Y28652
X132500Y29652
X134500Y28652
X129500Y29652
X131500Y33152
X134500Y33152
T07
X36750Y8152
X35750Y8152
X34750Y8152
X33750Y8152
X33250Y7152
X34250Y7152
X35250Y7152
X36250Y7152
X29250Y8152
X28250Y8152
X27250Y8152
X26250Y8152
X25750Y7152
X26750Y7152
X27750Y7152
X28750Y7152
T08
X28500Y14652
X27500Y14652
X25500Y14652
X24500Y14652
X23500Y14652
X22500Y14652
X21500Y14652
X20500Y14652
X19500Y14652
X18500Y14652
X16900Y14652
X15900Y14652
X14900Y14652
X13900Y14652
X12900Y14652
X11900Y14652
X10900Y14652
X9900Y14652
X29500Y14652
X30500Y14652
X31500Y14652
X32500Y14652
X33500Y14652
X34500Y14652
X37500Y14652
X38500Y14652
X38500Y15652
X37500Y15652
X37500Y16652
X38500Y16652
X38500Y17652
X37500Y17652
X37500Y18652
X38500Y18652
X38500Y19652
X37500Y19652
X37500Y27652
X38500Y27652
X38500Y28652
X37500Y28652
X37500Y29652
X38500Y29652
X38500Y30652
X37500Y30652
X37500Y31652
X38500Y31652
X50000Y33152
X51000Y33152
X52000Y33152
X60500Y34152
X61500Y34152
X62500Y34152
X74000Y35652
X74000Y36652
X74000Y37652
X90500Y39652
X91500Y39652
X92500Y39652
X93500Y39652
X94500Y39652
X95500Y39652
X96500Y39652
X97500Y39652
X100500Y39652
X101500Y39652
X102500Y39652
X103500Y39652
X104500Y39652
X105500Y39652
X106500Y39652
X107500Y39652
X131500Y31152
X132500Y31152
X133500Y31152
X133500Y26652
X132500Y26652
X131500Y26652
X131500Y21652
X132500Y21652
X133500Y21652
X129500Y18152
X129500Y17152
X129500Y16152
X129500Y15152
X129500Y14152
X129500Y13152
X129500Y12152
X129500Y11152
X124500Y11152
X124500Y12152
X124500Y13152
X124500Y14152
X124500Y15152
X124500Y16152
X124500Y17152
X124500Y18152
X18500Y33652
X17500Y33652
X16500Y33652
X15500Y33652
X14500Y33652
X13500Y33652
T09
X42500Y41152
X43500Y41152
X44500Y41152
X49500Y37652
X54500Y37652
X137000Y25152
X142000Y25152
X142000Y23152
X137000Y23152
X138000Y20652
X143000Y20652
X143000Y18652
X138000Y18652
X118000Y10652
X117000Y10652
X116000Y10652
X108000Y10652
X107000Y10652
X106000Y10652
X98000Y10652
X97000Y10652
X96000Y10652
X88500Y10652
X87500Y10652
X86500Y10652
X78500Y10652
X77500Y10652
X76500Y10652
X68500Y10652
X67500Y10652
X66500Y10652
X58500Y10652
X57500Y10652
X56500Y10652
X48500Y10652
X47500Y10652
X46500Y10652
T10
X22484Y39652
X20516Y39652
X17984Y39652
X16016Y39652
X13484Y39652
X11516Y39652
X48516Y40152
X50484Y40152
X52516Y40152
X54484Y40152
X58016Y40152
X59984Y40152
X62516Y40152
X64484Y40152
T11
X137000Y15152
X138000Y15152
X139000Y15152
X140000Y15152
X141000Y15152
X142000Y15152
X143000Y15152
X143500Y13152
X142500Y13152
X141500Y13152
X140500Y13152
X139500Y13152
X138500Y13152
X137500Y13152
X136500Y13152
X138500Y7935
X141500Y7935
X143248Y3931
X130248Y3931
X117748Y3931
X107748Y3931
X97748Y3931
X87748Y3931
X77748Y3931
X67748Y3931
X57748Y3931
X47748Y3931
X46000Y7935
X43000Y7935
X53000Y7935
X56000Y7935
X63000Y7935
X66000Y7935
X73000Y7935
X76000Y7935
X83000Y7935
X86000Y7935
X93000Y7935
X96000Y7935
X103000Y7935
X106000Y7935
X113000Y7935
X116000Y7935
X125500Y7935
X128500Y7935
T12
X7217Y2139
X11157Y2139
X16717Y2139
X20657Y2139
X21626Y6069
X20654Y7065
X18681Y6073
X16717Y7061
X15717Y6069
X12126Y6069
X11154Y7065
X9181Y6073
X7217Y7061
X6217Y6069
T13
X41000Y10152
X51000Y10152
X61000Y10152
X71000Y10152
X81000Y10152
X91000Y10152
X100500Y10152
X110500Y10152
X110500Y16152
X100500Y16152
X91000Y16152
X81000Y16152
X71000Y16152
X61000Y16152
X51000Y16152
X41000Y16152
T14
X43000Y6433
X46000Y6433
X43000Y4683
X46000Y2683
X53000Y4683
X53000Y6433
X56000Y6433
X63000Y6433
X66000Y6433
X63000Y4683
X66000Y2683
X73000Y4683
X73000Y6433
X76000Y6433
X83000Y6433
X86000Y6433
X83000Y4683
X86000Y2683
X93000Y4683
X93000Y6433
X96000Y6433
X103000Y6433
X106000Y6433
X103000Y4683
X106000Y2683
X113000Y4683
X113000Y6433
X116000Y6433
X125500Y6433
X128500Y6433
X125500Y4683
X128500Y2683
X138500Y4683
X138500Y6433
X141500Y6433
X141500Y2683
X116000Y2683
X96000Y2683
X76000Y2683
X56000Y2683
T15
X37250Y4652
X32750Y4652
X29750Y4652
X25250Y4652
X6375Y8652
X6500Y14652
X36000Y14652
X53250Y17902
X74000Y14152
X79500Y24402
X114000Y27402
X142500Y40652
X77000Y40652
X38500Y33652
X26500Y31652
X6000Y33652
X7000Y40652
X133500Y2152
T16
X117000Y17552
X107000Y17552
X97000Y17552
X87500Y17552
X77500Y17552
X67500Y17552
X57500Y17552
X47500Y17552
X68100Y36652
M30
