G75*
G70*
%OFA0B0*%
%FSLAX24Y24*%
%IPPOS*%
%LPD*%
%AMOC8*
5,1,8,0,0,1.08239X$1,22.5*
%
%ADD10C,0.1340*%
%ADD11R,0.2750X0.5250*%
%ADD12R,0.4500X4.4500*%
%ADD13C,0.0820*%
%ADD14R,0.0710X0.0789*%
%ADD15C,0.0980*%
%ADD16C,0.0600*%
%ADD17R,0.0867X0.0867*%
%ADD18R,0.0789X0.0710*%
%ADD19R,0.0671X0.0671*%
%ADD20R,0.0316X0.0552*%
%ADD21R,0.0880X0.0880*%
%ADD22C,0.0880*%
%ADD23R,0.0320X0.0950*%
%ADD24R,0.2521X0.2206*%
%ADD25R,0.0710X0.0474*%
%ADD26C,0.0520*%
%ADD27C,0.0720*%
%ADD28C,0.0680*%
%ADD29C,0.0474*%
%ADD30C,0.0356*%
%ADD31C,0.0476*%
D10*
X013831Y001140D03*
X010831Y035140D03*
X010831Y085140D03*
X036831Y085140D03*
X036831Y035140D03*
X036831Y001140D03*
D11*
X024456Y018515D03*
D12*
X023831Y060890D03*
D13*
X035441Y015920D03*
X035441Y013360D03*
X037221Y013360D03*
X037221Y015920D03*
D14*
X033382Y014640D03*
X033382Y013140D03*
X032280Y013140D03*
X032280Y014640D03*
X028882Y018140D03*
X027780Y018140D03*
X027280Y013640D03*
X028382Y013640D03*
X026382Y007640D03*
X025280Y007640D03*
X027280Y022640D03*
X028382Y022640D03*
X025882Y024140D03*
X024780Y024140D03*
X024780Y026140D03*
X025882Y026140D03*
X027780Y040140D03*
X028882Y040140D03*
X028882Y044140D03*
X027780Y044140D03*
X027780Y048140D03*
X028882Y048140D03*
X028882Y052140D03*
X027780Y052140D03*
X027780Y056140D03*
X028882Y056140D03*
X028882Y060140D03*
X027780Y060140D03*
X027780Y064140D03*
X028882Y064140D03*
X028882Y068140D03*
X027780Y068140D03*
X027780Y072140D03*
X028882Y072140D03*
X028882Y076140D03*
X027780Y076140D03*
X027780Y080140D03*
X028882Y080140D03*
X028882Y084140D03*
X027780Y084140D03*
X019882Y082140D03*
X018780Y082140D03*
X018780Y078140D03*
X019882Y078140D03*
X019882Y074140D03*
X018780Y074140D03*
X018780Y070140D03*
X019882Y070140D03*
X019882Y066140D03*
X018780Y066140D03*
X018780Y062140D03*
X019882Y062140D03*
X019882Y058140D03*
X018780Y058140D03*
X018780Y054140D03*
X019882Y054140D03*
X019882Y050140D03*
X018780Y050140D03*
X018780Y046140D03*
X019882Y046140D03*
X019882Y042140D03*
X018780Y042140D03*
X018780Y038140D03*
X019882Y038140D03*
X033780Y005640D03*
X034882Y005640D03*
D15*
X027457Y005057D03*
X026485Y006053D03*
X024512Y005061D03*
X022548Y006049D03*
X021548Y005057D03*
X022548Y001127D03*
X026488Y001127D03*
D16*
X021331Y008620D02*
X021331Y009140D01*
X020331Y009140D02*
X020331Y008620D01*
X019331Y008620D02*
X019331Y009140D01*
X018331Y009140D02*
X018331Y008620D01*
X018331Y012140D02*
X018331Y012660D01*
X019331Y012660D02*
X019331Y012140D01*
X020331Y012140D02*
X020331Y012660D01*
X021331Y012660D02*
X021331Y012140D01*
X017591Y016640D02*
X017071Y016640D01*
X017071Y017640D02*
X017591Y017640D01*
X017591Y018640D02*
X017071Y018640D01*
X017071Y019640D02*
X017591Y019640D01*
X017591Y020640D02*
X017071Y020640D01*
X017071Y021640D02*
X017591Y021640D01*
X017591Y022640D02*
X017071Y022640D01*
X017071Y023640D02*
X017591Y023640D01*
X017591Y024640D02*
X017071Y024640D01*
X017071Y025640D02*
X017591Y025640D01*
X017591Y026640D02*
X017071Y026640D01*
X017071Y027640D02*
X017591Y027640D01*
X017591Y028640D02*
X017071Y028640D01*
X017071Y029640D02*
X017591Y029640D01*
X014591Y029640D02*
X014071Y029640D01*
X014071Y028640D02*
X014591Y028640D01*
X014591Y027640D02*
X014071Y027640D01*
X014071Y026640D02*
X014591Y026640D01*
X014591Y025640D02*
X014071Y025640D01*
X014071Y024640D02*
X014591Y024640D01*
X014591Y023640D02*
X014071Y023640D01*
X014071Y022640D02*
X014591Y022640D01*
X014591Y021640D02*
X014071Y021640D01*
X014071Y020640D02*
X014591Y020640D01*
X014591Y019640D02*
X014071Y019640D01*
X014071Y018640D02*
X014591Y018640D01*
X014591Y017640D02*
X014071Y017640D01*
X014071Y016640D02*
X014591Y016640D01*
D17*
X022544Y007640D03*
X024118Y007640D03*
X033544Y004140D03*
X035118Y004140D03*
X032831Y038353D03*
X032831Y039927D03*
X032831Y042353D03*
X032831Y043927D03*
X032831Y046353D03*
X032831Y047927D03*
X032831Y050353D03*
X032831Y051927D03*
X032831Y054353D03*
X032831Y055927D03*
X032831Y058353D03*
X032831Y059927D03*
X032831Y062353D03*
X032831Y063927D03*
X032831Y066353D03*
X032831Y067927D03*
X032831Y070353D03*
X032831Y071927D03*
X032831Y074353D03*
X032831Y075927D03*
X032831Y078353D03*
X032831Y079927D03*
X032831Y082353D03*
X032831Y083927D03*
X014831Y083927D03*
X014831Y082353D03*
X014831Y079927D03*
X014831Y078353D03*
X014831Y075927D03*
X014831Y074353D03*
X014831Y071927D03*
X014831Y070353D03*
X014831Y067927D03*
X014831Y066353D03*
X014831Y063927D03*
X014831Y062353D03*
X014831Y059927D03*
X014831Y058353D03*
X014831Y055927D03*
X014831Y054353D03*
X014831Y051927D03*
X014831Y050353D03*
X014831Y047927D03*
X014831Y046353D03*
X014831Y043927D03*
X014831Y042353D03*
X014831Y039927D03*
X014831Y038353D03*
D18*
X013331Y038589D03*
X013331Y039691D03*
X013331Y042589D03*
X013331Y043691D03*
X013331Y046589D03*
X013331Y047691D03*
X013331Y050589D03*
X013331Y051691D03*
X013331Y054589D03*
X013331Y055691D03*
X013331Y058589D03*
X013331Y059691D03*
X013331Y062589D03*
X013331Y063691D03*
X013331Y066589D03*
X013331Y067691D03*
X013331Y070589D03*
X013331Y071691D03*
X013331Y074589D03*
X013331Y075691D03*
X013331Y078589D03*
X013331Y079691D03*
X013331Y082589D03*
X013331Y083691D03*
X034331Y083691D03*
X034331Y082589D03*
X034331Y079691D03*
X034331Y078589D03*
X034331Y075691D03*
X034331Y074589D03*
X034331Y071691D03*
X034331Y070589D03*
X034331Y067691D03*
X034331Y066589D03*
X034331Y063691D03*
X034331Y062589D03*
X034331Y059691D03*
X034331Y058589D03*
X034331Y055691D03*
X034331Y054589D03*
X034331Y051691D03*
X034331Y050589D03*
X034331Y047691D03*
X034331Y046589D03*
X034331Y043691D03*
X034331Y042589D03*
X034331Y039691D03*
X034331Y038589D03*
X020331Y017191D03*
X020331Y016089D03*
X019831Y019089D03*
X019831Y020191D03*
X018331Y014691D03*
X018331Y013589D03*
D19*
X020331Y013451D03*
X020331Y014829D03*
X019831Y021451D03*
X019831Y022829D03*
X020020Y039140D03*
X018642Y039140D03*
X018642Y043140D03*
X020020Y043140D03*
X020020Y047140D03*
X018642Y047140D03*
X018642Y051140D03*
X020020Y051140D03*
X020020Y055140D03*
X018642Y055140D03*
X018642Y059140D03*
X020020Y059140D03*
X020020Y063140D03*
X018642Y063140D03*
X018642Y067140D03*
X020020Y067140D03*
X020020Y071140D03*
X018642Y071140D03*
X018642Y075140D03*
X020020Y075140D03*
X020020Y079140D03*
X018642Y079140D03*
X018642Y083140D03*
X020020Y083140D03*
X027642Y083140D03*
X029020Y083140D03*
X029020Y079140D03*
X027642Y079140D03*
X027642Y075140D03*
X029020Y075140D03*
X029020Y071140D03*
X027642Y071140D03*
X027642Y067140D03*
X029020Y067140D03*
X029020Y063140D03*
X027642Y063140D03*
X027642Y059140D03*
X029020Y059140D03*
X029020Y055140D03*
X027642Y055140D03*
X027642Y051140D03*
X029020Y051140D03*
X029020Y047140D03*
X027642Y047140D03*
X027642Y043140D03*
X029020Y043140D03*
X029020Y039140D03*
X027642Y039140D03*
X032142Y012140D03*
X033520Y012140D03*
D20*
X031081Y032538D03*
X030581Y032538D03*
X030081Y032538D03*
X029581Y032538D03*
X029081Y032538D03*
X028581Y032538D03*
X028081Y032538D03*
X027581Y032538D03*
X027581Y034742D03*
X028081Y034742D03*
X028581Y034742D03*
X029081Y034742D03*
X029581Y034742D03*
X030081Y034742D03*
X030581Y034742D03*
X031081Y034742D03*
X025581Y034742D03*
X025081Y034742D03*
X024581Y034742D03*
X024081Y034742D03*
X023581Y034742D03*
X023081Y034742D03*
X022581Y034742D03*
X022081Y034742D03*
X022081Y032538D03*
X022581Y032538D03*
X023081Y032538D03*
X023581Y032538D03*
X024081Y032538D03*
X024581Y032538D03*
X025081Y032538D03*
X025581Y032538D03*
X020081Y032538D03*
X019581Y032538D03*
X019081Y032538D03*
X018581Y032538D03*
X018081Y032538D03*
X017581Y032538D03*
X017081Y032538D03*
X016581Y032538D03*
X016581Y034742D03*
X017081Y034742D03*
X017581Y034742D03*
X018081Y034742D03*
X018581Y034742D03*
X019081Y034742D03*
X019581Y034742D03*
X020081Y034742D03*
D21*
X011331Y038140D03*
X011331Y042140D03*
X011331Y046140D03*
X011331Y050140D03*
X011331Y054140D03*
X011331Y058140D03*
X011331Y062140D03*
X011331Y066140D03*
X011331Y070140D03*
X011331Y074140D03*
X011331Y078140D03*
X011331Y082140D03*
X036331Y083640D03*
X036331Y079640D03*
X036331Y075640D03*
X036331Y071640D03*
X036331Y067640D03*
X036331Y063640D03*
X036331Y059640D03*
X036331Y055640D03*
X036331Y051640D03*
X036331Y047640D03*
X036331Y043640D03*
X036331Y039640D03*
X036331Y010140D03*
X034831Y001640D03*
X031331Y001640D03*
D22*
X029953Y001640D03*
X033453Y001640D03*
X036331Y008762D03*
X036331Y038262D03*
X036331Y042262D03*
X036331Y046262D03*
X036331Y050262D03*
X036331Y054262D03*
X036331Y058262D03*
X036331Y062262D03*
X036331Y066262D03*
X036331Y070262D03*
X036331Y074262D03*
X036331Y078262D03*
X036331Y082262D03*
X011331Y083518D03*
X011331Y079518D03*
X011331Y075518D03*
X011331Y071518D03*
X011331Y067518D03*
X011331Y063518D03*
X011331Y059518D03*
X011331Y055518D03*
X011331Y051518D03*
X011331Y047518D03*
X011331Y043518D03*
X011331Y039518D03*
D23*
X016081Y040170D03*
X016581Y040170D03*
X017081Y040170D03*
X017581Y040170D03*
X017581Y042110D03*
X017081Y042110D03*
X016581Y042110D03*
X016081Y042110D03*
X016081Y044170D03*
X016581Y044170D03*
X017081Y044170D03*
X017581Y044170D03*
X017581Y046110D03*
X017081Y046110D03*
X016581Y046110D03*
X016081Y046110D03*
X016081Y048170D03*
X016581Y048170D03*
X017081Y048170D03*
X017581Y048170D03*
X017581Y050110D03*
X017081Y050110D03*
X016581Y050110D03*
X016081Y050110D03*
X016081Y052170D03*
X016581Y052170D03*
X017081Y052170D03*
X017581Y052170D03*
X017581Y054110D03*
X017081Y054110D03*
X016581Y054110D03*
X016081Y054110D03*
X016081Y056170D03*
X016581Y056170D03*
X017081Y056170D03*
X017581Y056170D03*
X017581Y058110D03*
X017081Y058110D03*
X016581Y058110D03*
X016081Y058110D03*
X016081Y060170D03*
X016581Y060170D03*
X017081Y060170D03*
X017581Y060170D03*
X017581Y062110D03*
X017081Y062110D03*
X016581Y062110D03*
X016081Y062110D03*
X016081Y064170D03*
X016581Y064170D03*
X017081Y064170D03*
X017581Y064170D03*
X017581Y066110D03*
X017081Y066110D03*
X016581Y066110D03*
X016081Y066110D03*
X016081Y068170D03*
X016581Y068170D03*
X017081Y068170D03*
X017581Y068170D03*
X017581Y070110D03*
X017081Y070110D03*
X016581Y070110D03*
X016081Y070110D03*
X016081Y072170D03*
X016581Y072170D03*
X017081Y072170D03*
X017581Y072170D03*
X017581Y074110D03*
X017081Y074110D03*
X016581Y074110D03*
X016081Y074110D03*
X016081Y076170D03*
X016581Y076170D03*
X017081Y076170D03*
X017581Y076170D03*
X017581Y078110D03*
X017081Y078110D03*
X016581Y078110D03*
X016081Y078110D03*
X016081Y080170D03*
X016581Y080170D03*
X017081Y080170D03*
X017581Y080170D03*
X017581Y082110D03*
X017081Y082110D03*
X016581Y082110D03*
X016081Y082110D03*
X016081Y084170D03*
X016581Y084170D03*
X017081Y084170D03*
X017581Y084170D03*
X030081Y084170D03*
X030581Y084170D03*
X031081Y084170D03*
X031581Y084170D03*
X031581Y082110D03*
X031081Y082110D03*
X030581Y082110D03*
X030081Y082110D03*
X030081Y080170D03*
X030581Y080170D03*
X031081Y080170D03*
X031581Y080170D03*
X031581Y078110D03*
X031081Y078110D03*
X030581Y078110D03*
X030081Y078110D03*
X030081Y076170D03*
X030581Y076170D03*
X031081Y076170D03*
X031581Y076170D03*
X031581Y074110D03*
X031081Y074110D03*
X030581Y074110D03*
X030081Y074110D03*
X030081Y072170D03*
X030581Y072170D03*
X031081Y072170D03*
X031581Y072170D03*
X031581Y070110D03*
X031081Y070110D03*
X030581Y070110D03*
X030081Y070110D03*
X030081Y068170D03*
X030581Y068170D03*
X031081Y068170D03*
X031581Y068170D03*
X031581Y066110D03*
X031081Y066110D03*
X030581Y066110D03*
X030081Y066110D03*
X030081Y064170D03*
X030581Y064170D03*
X031081Y064170D03*
X031581Y064170D03*
X031581Y062110D03*
X031081Y062110D03*
X030581Y062110D03*
X030081Y062110D03*
X030081Y060170D03*
X030581Y060170D03*
X031081Y060170D03*
X031581Y060170D03*
X031581Y058110D03*
X031081Y058110D03*
X030581Y058110D03*
X030081Y058110D03*
X030081Y056170D03*
X030581Y056170D03*
X031081Y056170D03*
X031581Y056170D03*
X031581Y054110D03*
X031081Y054110D03*
X030581Y054110D03*
X030081Y054110D03*
X030081Y052170D03*
X030581Y052170D03*
X031081Y052170D03*
X031581Y052170D03*
X031581Y050110D03*
X031081Y050110D03*
X030581Y050110D03*
X030081Y050110D03*
X030081Y048170D03*
X030581Y048170D03*
X031081Y048170D03*
X031581Y048170D03*
X031581Y046110D03*
X031081Y046110D03*
X030581Y046110D03*
X030081Y046110D03*
X030081Y044170D03*
X030581Y044170D03*
X031081Y044170D03*
X031581Y044170D03*
X031581Y042110D03*
X031081Y042110D03*
X030581Y042110D03*
X030081Y042110D03*
X030081Y040170D03*
X030581Y040170D03*
X031081Y040170D03*
X031581Y040170D03*
X031581Y038110D03*
X031081Y038110D03*
X030581Y038110D03*
X030081Y038110D03*
X017581Y038110D03*
X017081Y038110D03*
X016581Y038110D03*
X016081Y038110D03*
D24*
X027347Y020140D03*
X027347Y016140D03*
D25*
X030221Y015242D03*
X030221Y017038D03*
X030221Y019242D03*
X030221Y021038D03*
D26*
X023051Y024140D02*
X022611Y024140D01*
X022611Y026140D02*
X023051Y026140D01*
D27*
X014831Y032140D03*
X014831Y033140D03*
X014831Y034140D03*
X013831Y034140D03*
X013831Y033140D03*
X013831Y032140D03*
D28*
X019531Y028140D02*
X020131Y028140D01*
X020131Y027140D02*
X019531Y027140D01*
D29*
X015581Y035390D03*
X020831Y037890D03*
X020081Y049140D03*
X019831Y064890D03*
X027831Y069140D03*
X027831Y053140D03*
X035331Y036890D03*
X031831Y032140D03*
X029331Y014390D03*
X023581Y022140D03*
X011081Y048890D03*
X011081Y064640D03*
X012831Y084890D03*
X026331Y085140D03*
X036331Y068890D03*
X035831Y052890D03*
D30*
X035331Y006640D03*
X031831Y006640D03*
D31*
X032831Y005640D03*
X033331Y008140D03*
X031331Y004140D03*
X030831Y013140D03*
X031331Y014140D03*
X031331Y016140D03*
X032280Y016140D03*
X032331Y017140D03*
X031831Y019140D03*
X030331Y020140D03*
X030331Y016140D03*
X029331Y013640D03*
X027331Y023640D03*
X024831Y023140D03*
X021831Y022640D03*
X020831Y021640D03*
X019831Y023640D03*
X018831Y019140D03*
X019331Y017140D03*
X019331Y015640D03*
X021831Y017140D03*
X021831Y029640D03*
X021831Y030640D03*
X021331Y033140D03*
X022581Y035890D03*
X023081Y035390D03*
X023581Y035890D03*
X024081Y035390D03*
X024581Y035890D03*
X025081Y035390D03*
X025581Y035890D03*
X026331Y033640D03*
X026831Y033140D03*
X026831Y031140D03*
X028581Y035390D03*
X029081Y035890D03*
X029581Y035390D03*
X030081Y035890D03*
X030581Y035390D03*
X031081Y035890D03*
X031581Y035390D03*
X030331Y031640D03*
X029331Y031140D03*
X028081Y035890D03*
X028581Y037390D03*
X029081Y040890D03*
X030581Y048890D03*
X030831Y052890D03*
X030831Y056890D03*
X030831Y060890D03*
X030831Y064890D03*
X030831Y068890D03*
X030081Y073140D03*
X030081Y077140D03*
X030081Y081140D03*
X031581Y084890D03*
X034076Y081139D03*
X034060Y077141D03*
X034044Y073140D03*
X034028Y069139D03*
X034033Y065140D03*
X034037Y061140D03*
X034041Y057140D03*
X034045Y053140D03*
X034049Y049140D03*
X034054Y045140D03*
X034058Y041140D03*
X024331Y031640D03*
X023331Y031140D03*
X020081Y031640D03*
X019331Y033390D03*
X018331Y031140D03*
X018831Y029640D03*
X018331Y029140D03*
X016331Y031640D03*
X017081Y035390D03*
X017581Y035890D03*
X018081Y035390D03*
X018581Y035890D03*
X019081Y035390D03*
X019581Y035890D03*
X020081Y035390D03*
X018831Y041390D03*
X017331Y045140D03*
X017081Y049140D03*
X017081Y053140D03*
X017081Y057140D03*
X017081Y061140D03*
X017081Y065140D03*
X017581Y069140D03*
X017581Y073140D03*
X017581Y077140D03*
X017581Y081140D03*
X013581Y081140D03*
X013581Y077140D03*
X013581Y073140D03*
X013581Y069140D03*
X013581Y065140D03*
X013581Y061140D03*
X013581Y057140D03*
X013581Y053140D03*
X013581Y049140D03*
X013581Y045140D03*
X013581Y041140D03*
X015331Y037140D03*
X016331Y036890D03*
X026331Y083890D03*
M02*
