%
M48
M72
T01C0.0236
T02C0.0240
T03C0.0320
T04C0.0354
T05C0.0400
T06C0.0472
T07C0.0551
T08C0.1260
%
T01
X15331Y37140
X16331Y36890
X17081Y35390
X17581Y35890
X18081Y35390
X18581Y35890
X19081Y35390
X19581Y35890
X20081Y35390
X19331Y33390
X20081Y31640
X18831Y29640
X18331Y29140
X18331Y31140
X16331Y31640
X19831Y23640
X20831Y21640
X21831Y22640
X21831Y17140
X19331Y17140
X19331Y15640
X18831Y19140
X21831Y29640
X21831Y30640
X21331Y33140
X22581Y35890
X23081Y35390
X23581Y35890
X24081Y35390
X24581Y35890
X25081Y35390
X25581Y35890
X26331Y33640
X26831Y33140
X26831Y31140
X28581Y35390
X29081Y35890
X29581Y35390
X30081Y35890
X30581Y35390
X31081Y35890
X31581Y35390
X30331Y31640
X29331Y31140
X28081Y35890
X28581Y37390
X29081Y40890
X30581Y48890
X30831Y52890
X30831Y56890
X30831Y60890
X30831Y64890
X30831Y68890
X30081Y73140
X30081Y77140
X30081Y81140
X31581Y84890
X34076Y81139
X34060Y77141
X34044Y73140
X34028Y69139
X34033Y65140
X34037Y61140
X34041Y57140
X34045Y53140
X34049Y49140
X34054Y45140
X34058Y41140
X27331Y23640
X24831Y23140
X23331Y31140
X24331Y31640
X18831Y41390
X17331Y45140
X17081Y49140
X17081Y53140
X17081Y57140
X17081Y61140
X17081Y65140
X17581Y69140
X17581Y73140
X17581Y77140
X17581Y81140
X13581Y81140
X13581Y77140
X13581Y73140
X13581Y69140
X13581Y65140
X13581Y61140
X13581Y57140
X13581Y53140
X13581Y49140
X13581Y45140
X13581Y41140
X29331Y13640
X30331Y16140
X31331Y16140
X31331Y14140
X30831Y13140
X32280Y16140
X32331Y17140
X31831Y19140
X30331Y20140
X33331Y8140
X32831Y5640
X31331Y4140
X26331Y83890
T02
X22831Y26140
X22831Y24140
T03
X21331Y12140
X20331Y12140
X19331Y12140
X18331Y12140
X18331Y9140
X19331Y9140
X20331Y9140
X21331Y9140
X17331Y16640
X17331Y17640
X17331Y18640
X17331Y19640
X17331Y20640
X17331Y21640
X17331Y22640
X17331Y23640
X17331Y24640
X17331Y25640
X17331Y26640
X17331Y27640
X17331Y28640
X17331Y29640
X14331Y29640
X14331Y28640
X14331Y27640
X14331Y26640
X14331Y25640
X14331Y24640
X14331Y23640
X14331Y22640
X14331Y21640
X14331Y20640
X14331Y19640
X14331Y18640
X14331Y17640
X14331Y16640
T04
X14831Y32140
X14831Y33140
X14831Y34140
X13831Y34140
X13831Y33140
X13831Y32140
T05
X19831Y28140
X19831Y27140
X35441Y15920
X35441Y13360
X37221Y13360
X37221Y15920
T06
X36331Y10140
X36331Y8762
X34831Y1640
X33453Y1640
X31331Y1640
X29953Y1640
X36331Y38262
X36331Y39640
X36331Y42262
X36331Y43640
X36331Y46262
X36331Y47640
X36331Y50262
X36331Y51640
X36331Y54262
X36331Y55640
X36331Y58262
X36331Y59640
X36331Y62262
X36331Y63640
X36331Y66262
X36331Y67640
X36331Y70262
X36331Y71640
X36331Y74262
X36331Y75640
X36331Y78262
X36331Y79640
X36331Y82262
X36331Y83640
X11331Y83518
X11331Y82140
X11331Y79518
X11331Y78140
X11331Y75518
X11331Y74140
X11331Y71518
X11331Y70140
X11331Y67518
X11331Y66140
X11331Y63518
X11331Y62140
X11331Y59518
X11331Y58140
X11331Y55518
X11331Y54140
X11331Y51518
X11331Y50140
X11331Y47518
X11331Y46140
X11331Y43518
X11331Y42140
X11331Y39518
X11331Y38140
T07
X22548Y6049
X21548Y5057
X22548Y1127
X24512Y5061
X26485Y6053
X27457Y5057
X26488Y1127
T08
X13831Y1140
X10831Y35140
X10831Y85140
X36831Y85140
X36831Y35140
X36831Y1140
M30
